<svg xmlns="http://www.w3.org/2000/svg" width="344" height="254">
  <path fill="#ed1588" d="M0 0h4.489v243.664H0Zm0 0"/>
  <path d="M338.538 216.67h5.387v3.906h-5.387v16.757c0 2.095.574 2.41 3.341 2.41h2.046v3.905h-3.4c-4.593 0-6.417-.929-6.417-5.89v-17.182h-4.592v-3.905h4.592v-8.095h4.43zm-24.33 0h4.18v5.686h.103c2.135-4.394 5.108-6.473 9.92-6.315v4.693c-7.152 0-9.758 4.016-9.758 10.914v12h-4.445zm-17.014 23.702c4.636 0 8.404-3.653 8.404-10.189 0-6.52-3.767-10.237-8.404-10.237-4.651 0-8.404 3.717-8.404 10.237 0 6.536 3.753 10.19 8.404 10.19m0-24.332c8.552 0 13.1 6.205 13.1 14.142 0 7.89-4.548 14.095-13.1 14.095-8.566 0-13.099-6.205-13.099-14.095 0-7.937 4.533-14.142 13.1-14.142m-28.834 3.905c-6.005 0-8.243 5.182-8.243 10.19 0 5.276 2.4 10.236 8.508 10.236 6.049 0 8.094-5.18 8.094-10.44 0-5.072-2.62-9.986-8.36-9.986m-12.525-3.275h4.43v3.653h.118c1.458-2.976 4.842-4.283 8.61-4.283 8.287 0 12.423 6.583 12.423 14.205 0 7.67-4.077 14.032-12.32 14.032-2.722 0-6.785-1.04-8.713-4.22h-.118v13.937h-4.43zm-10.48.614c-.573-5.37-4.076-7.622-9.242-7.622-4.224 0-8.346 1.527-8.346 6.378 0 9.181 23.844 2.709 23.844 17.386 0 7.938-7.771 11.119-14.556 11.119-8.346 0-15.395-4.126-15.395-13.166h4.694c0 6.268 5.225 8.992 10.863 8.992 4.488 0 9.448-1.417 9.448-6.787 0-10.237-23.858-3.496-23.858-17.182 0-7.512 6.683-10.914 13.512-10.914 7.624 0 13.467 3.607 13.732 11.796zm-52.662-3.024c0-2.142-1.618-3.969-4.283-3.969-2.09 0-4.283 1.26-4.283 3.97 0 2.251 1.987 4.44 3.607 6.472 2.133-1.402 4.96-3.229 4.96-6.473m-6.418 11.386c-3.503 1.922-6.476 4.016-6.476 8.395 0 3.763 3.489 6.33 7.094 6.33 3.4 0 6.109-1.732 7.934-4.44zm11.01 13.355c-2.252 3.512-6.477 5.276-10.538 5.276-10.083 0-11.643-7.15-11.643-10.173 0-5.796 3.96-8.772 8.714-11.277-2.091-2.929-4.122-5.008-4.122-8.772 0-4.015 2.973-7.67 8.404-7.67 4.636 0 9.022 2.552 9.022 7.623 0 4.489-3.385 7.56-6.99 9.654l6.74 8.19a20.093 20.093 0 0 0 1.192-5.796h4.225c-.412 4.488-.942 5.795-2.502 9.197l7.256 8.394h-5.8zm-45.363-9.291c-3.444 2.567-13.467.063-13.467 6.693 0 2.913 2.517 3.968 5.224 3.968 5.844 0 8.243-3.606 8.243-6.11zm7.212 13.843c-.794.472-1.884.724-3.193.724-2.296 0-3.753-1.244-3.753-4.173-2.458 2.929-5.74 4.173-9.494 4.173-4.916 0-8.934-2.142-8.934-7.56 0-6.11 4.548-7.464 9.14-8.315 4.857-.992 9.081-.566 9.081-3.952 0-3.922-3.238-4.505-6.005-4.505-3.753 0-6.52 1.15-6.726 5.119h-4.445c.265-6.678 5.372-9.024 11.436-9.024 4.842 0 10.126 1.086 10.126 7.417v13.875c0 2.095 0 3.04 1.398 3.04.427 0 .898-.11 1.37-.268zm-33.91-26.884h4.444v26.993h-4.445zm4.444-4.867h-4.445v-5.417h4.445zm-22.549 28.568c6.006 0 8.257-5.18 8.257-10.189 0-5.276-2.414-10.237-8.521-10.237-6.05 0-8.08 5.182-8.08 10.442 0 5.07 2.604 9.984 8.345 9.984m12.525 3.276h-4.43v-3.653h-.103c-1.472 2.976-4.857 4.283-8.61 4.283-8.301 0-12.423-6.567-12.423-14.19 0-7.622 4.063-14.047 12.32-14.047 2.707 0 6.785 1.04 8.713 4.22h.103v-13.874h4.43zM87 227.567c-.266-4.22-3.341-7.622-7.786-7.622-4.593 0-7.463 3.45-7.713 7.623zm4.282 7.529c-1.205 6-5.43 9.181-11.54 9.181-8.608 0-12.686-6-12.95-14.19 0-8.157 5.327-14.047 12.686-14.047 9.552 0 12.482 8.93 12.216 15.45H71.502c-.162 4.692 2.503 8.881 8.404 8.881 3.695 0 6.212-1.732 6.991-5.275zm-66.32-28.71h6.785l11.744 31.324 11.804-31.324h6.786v37.261h-4.71V212.64h-.103l-11.642 31.01h-4.224L29.76 212.64h-.103v31.01h-4.695Zm232.183-24.694h5.799v5.276c0 3.968-1.738 6.992-5.74 8.205v-2.615c2.295-.834 3.178-3.338 3.016-5.07h-3.075zm-8.39-10.284c-.266-4.22-3.341-7.622-7.771-7.622-4.593 0-7.463 3.449-7.728 7.622zm4.283 7.528c-1.207 6-5.432 9.181-11.54 9.181-8.61 0-12.687-6-12.937-14.205 0-8.142 5.314-14.032 12.673-14.032 9.552 0 12.48 8.914 12.215 15.45h-20.193c-.162 4.692 2.503 8.866 8.405 8.866 3.709 0 6.21-1.717 6.99-5.26zm-39.121-18.442h4.179v5.701h.103c2.15-4.394 5.122-6.473 9.92-6.315v4.693c-7.153 0-9.758 4.016-9.758 10.914v12h-4.444zm-5.314 26.993h-4.165v-4.283h-.103c-1.884 3.354-4.858 4.913-8.773 4.913-7.093 0-9.287-4.079-9.287-9.874v-17.749h4.43v18.284c0 3.34 2.09 5.418 5.476 5.418 5.387 0 7.992-3.59 7.992-8.457v-15.245h4.43zm-30.894-26.993h5.372v3.921h-5.372v16.757c0 2.095.574 2.41 3.341 2.41h2.031v3.905h-3.385c-4.592 0-6.417-.929-6.417-5.89v-17.181h-4.592v-3.922h4.592v-8.079h4.43zm-16.205-10.284h4.43v37.277h-4.43zm-5.49 37.277h-4.18v-4.283h-.102c-1.885 3.354-4.857 4.913-8.773 4.913-7.094 0-9.287-4.079-9.287-9.874v-17.749h4.445v18.284c0 3.34 2.074 5.418 5.475 5.418 5.372 0 7.977-3.59 7.977-8.457v-15.245h4.445zm-31.556-26.048c-1.104-5.276-5.225-7.937-10.436-7.937-8.874 0-12.628 7.307-12.628 15.087 0 8.52 3.754 15.607 12.673 15.607 6.476 0 10.332-4.583 10.759-10.74h4.96c-1 9.338-6.682 14.929-16.131 14.929-11.54 0-17.22-8.567-17.22-19.434 0-10.85 6.15-19.623 17.631-19.623 7.787 0 14.248 4.174 15.352 12.111zm-57.932-.945h4.165v5.701h.103c2.15-4.394 5.122-6.473 9.92-6.315v4.693c-7.152 0-9.758 4.016-9.758 10.914v12h-4.43zm-17.029 23.702c4.651 0 8.404-3.654 8.404-10.174s-3.753-10.236-8.404-10.236c-4.636 0-8.405 3.716-8.405 10.236 0 6.52 3.769 10.174 8.405 10.174m0-24.316c8.566 0 13.1 6.205 13.1 14.142 0 7.89-4.534 14.095-13.1 14.095-8.551 0-13.099-6.205-13.099-14.095 0-7.937 4.548-14.142 13.1-14.142m-23.535 4.535h-4.55v-3.921h4.55v-4.016c0-4.378 2.604-6.677 7.461-6.677.825 0 2.032.157 2.87.41v3.873c-.78-.267-1.721-.362-2.517-.362-2.133 0-3.385.677-3.385 3.024v3.748h5.225v3.922h-5.225v23.072h-4.43zm254.45-60.08h5.374v3.92h-5.373v16.757c0 2.095.575 2.394 3.34 2.394h2.033v3.921h-3.386c-4.592 0-6.432-.944-6.432-5.89v-17.181h-4.592v-3.922h4.592V96.24h4.445zm-33.734 0h4.18v4.283h.103c1.87-3.339 4.857-4.914 8.772-4.914 7.095 0 9.288 4.08 9.288 9.875v17.748h-4.445V113.06c0-3.339-2.09-5.433-5.475-5.433-5.372 0-7.992 3.606-7.992 8.457v15.244h-4.43zm-8.346 10.913c-.264-4.22-3.34-7.622-7.77-7.622-4.592 0-7.477 3.449-7.728 7.622zm4.285 7.512c-1.208 6.016-5.432 9.197-11.54 9.197-8.61 0-12.688-6-12.937-14.205 0-8.142 5.313-14.048 12.673-14.048 9.551 0 12.48 8.93 12.215 15.465h-20.194c-.161 4.694 2.503 8.867 8.405 8.867 3.694 0 6.211-1.717 6.99-5.276zm-66.278-18.426h4.18v3.969h.103c2.031-3.071 4.901-4.599 8.713-4.599 3.341 0 6.314 1.26 7.404 4.599 1.84-2.914 4.96-4.599 8.463-4.599 5.372 0 8.978 2.252 8.978 7.843v19.78h-4.445v-17.701c0-3.339-.883-6-5.21-6-4.342 0-7.05 2.708-7.05 6.898v16.803h-4.43v-17.701c0-3.496-1.104-6-5.064-6-5.224 0-7.212 4.803-7.212 6.898v16.803h-4.43zm-8.683 0h5.372v3.922h-5.372v16.756c0 2.095.574 2.394 3.34 2.394h2.032v3.921h-3.385c-4.593 0-6.418-.944-6.418-5.89v-17.181h-4.592v-3.922h4.592V96.24h4.43zm-24.33 0h4.18v5.701h.103c2.134-4.394 5.107-6.473 9.906-6.33v4.708c-7.14 0-9.76 4.016-9.76 10.914v12h-4.43zm-10.215 13.056c-3.444 2.551-13.467.047-13.467 6.677 0 2.93 2.517 3.969 5.225 3.969 5.843 0 8.243-3.59 8.243-6.11zm7.212 13.843c-.794.457-1.884.724-3.193.724-2.297 0-3.754-1.26-3.754-4.173-2.458 2.914-5.74 4.173-9.493 4.173-4.916 0-8.935-2.141-8.935-7.575 0-6.11 4.549-7.465 9.14-8.3 4.858-.991 9.082-.566 9.082-3.968 0-3.906-3.238-4.488-6.005-4.488-3.753 0-6.52 1.15-6.726 5.118h-4.445c.265-6.677 5.372-9.04 11.436-9.04 4.843 0 10.126 1.103 10.126 7.418v13.89c0 2.095 0 3.024 1.399 3.024.426 0 .897-.095 1.368-.252zm-40.843-23.607c-6.005 0-8.258 5.165-8.258 10.19 0 5.26 2.414 10.22 8.508 10.22 6.064 0 8.095-5.166 8.095-10.441 0-5.056-2.606-9.97-8.346-9.97m-12.525-3.29h4.43v3.653h.103c1.458-2.977 4.858-4.284 8.61-4.284 8.302 0 12.423 6.583 12.423 14.206 0 7.67-4.062 14.047-12.32 14.047-2.708 0-6.784-1.039-8.712-4.236h-.103v13.938h-4.43zm-8.419 10.913c-.264-4.22-3.34-7.622-7.786-7.622-4.592 0-7.462 3.449-7.727 7.622zm4.269 7.512c-1.192 6.016-5.416 9.197-11.525 9.197-8.61 0-12.687-6-12.952-14.205 0-8.142 5.328-14.048 12.688-14.048 9.551 0 12.48 8.93 12.215 15.465H63.025c-.147 4.694 2.517 8.867 8.404 8.867 3.71 0 6.211-1.717 7.006-5.276zm-52.986 4.394h8.243c3.399 0 12.524-.945 12.524-14.678 0-8.866-3.282-14.252-12.423-14.252H29.82Zm-4.96-33.103h12.79c11.48 0 17.897 5.796 17.897 17.75 0 12.488-5.475 19.527-17.897 19.527H24.86Zm70.177-25.812s-.398 2.284-.383 2.473l-.677-.11c-.015 0 .412-2.016.53-2.457a1.711 1.831 0 0 0-.81.078l.266-.582 1.869.33.132.646c-.147-.157-.662-.33-.927-.378m-1.634.126c-.058.52-.309 1.606-.22 2.11l-.692-.11c.308-.771.515-2.094.47-2.93l.692.111c-.118.22-.191.504-.25.82m-1.84 1.747c-1.766.33-1.766-2.661-.338-3.07 1.767-.379 1.78 2.66.338 3.07m-1.53-2.362c-.074.346-.324.567-.736.693.177.598.28.787.589 1.417v.016l-.471-.063c-.103-.063-.692-.882-.87-1.339-.102.378-.205.835-.16 1.181l-.795-.126c.146-.236.764-2.661.75-2.913.677.079 1.913.205 1.692 1.134m-3.414 1.37c-.412.142-1-.016-1.442-.095l.588-2.976c1.928-.126 2.723 2.362.854 3.071m-2.739-.252c-.22-.047-1.383-2.41-1.383-2.41s-.28 1.843-.352 1.969l-.53-.079.603-2.882.589.079c0 .063.928 2.016.928 2.016s.308-1.575.338-1.717l.441.126zm-2.428-1.858c-.632 2.126-3.09.96-2.355-.945.619-2.063 3.092-.977 2.355.945m-2.56-2.3c-.118.095-.486 2.693-.456 2.945l-.707-.141c.133-.22.294-2.032.294-2.032l-1.192 1.858-.707-2.094s-.294 1.512-.294 1.984l-.692-.094c.22-.347.648-3.024.648-3.024l.707.142c.03.141.558 1.953.558 1.953s.942-1.591 1.001-1.67l.84.158zm17.22 1.827c-.869 0-1.692-.015-2.105-.047-4.577-.44-9.11-1.748-13.672-2.473-1.326-.22-2.4-.409-3.342-.409-1.943 0-3.253.85-4.814 4.173-.676 1.26 1.561 2.473 2.047 2.52-1.825-1.559-1.192-2.016.25-2.016 2.002 0 5.55.882 6.24.961 4.195.677 8.42 1.874 12.674 2.33.146.017.293.017.426.017 3.135 0 2.988-3.418 5.137-5.119-.383.047-1.648.063-2.84.063m-15.543-1.165c-1.09-.3-1.517 1.953-.604 2.33 1.12.3 1.516-1.936.603-2.33m8.346 1.653-.308 1.15c.882.173 1.265-1.008.308-1.15m2.738.41c-1.046-.252-1.384 1.921-.516 2.268 1.06.252 1.384-1.906.515-2.268m-5.343-.93c-.146.583-.383 1.67-.456 2.269 1.37.283 1.782-2 .456-2.268M52.84 64.822l.53 2.645-.619.11-.53-2.63c-.367.064-.588.064-1.088.284l-.015-.583 2.62-.346.177.504c-.236-.095-1.075.016-1.075.016m-1.914 3.102-1.81.41c.03-.268-.574-2.82-.736-3.056l1.913-.44-.147.645c-.265-.063-.574-.063-.942 0l.235.93 1.046-.237.177.441c-.206-.032-.84.142-1.134.189l.236.96c.515-.11.942-.299 1.28-.535l.015.016zm-5.269.945c-1.324.032-1.516-1.874-1.825-2.803l.633-.126c.309.819.221 2.724 1.59 2.472.986-.44.19-2.016.088-2.771l.633-.08c.235 1.245.81 3.434-1.119 3.308m-1.87.284-1.81.393c.03-.267-.56-2.819-.706-3.055l1.913-.425-.162.646c-.265-.08-.573-.08-.927 0l.22.929 1.06-.237.162.441c-.205-.031-.838.126-1.132.174l.22.976c.515-.126.956-.3 1.296-.52zm-3.4.74c.045-.898-.264-2.315-.677-3.118l.898-.19c-.043.898.25 2.316.663 3.119zm-.896-.551c-.383.897-1.517 1.102-2.4 1.26.044-.284-.5-2.883-.662-3.119 1.53-.645 3.723-.015 3.06 1.859m14.617-5.764c-6.948.015-13.866 2.976-20.812 2.976-.84 0-1.664-.047-2.502-.142 2.15 1.701 2.002 5.119 5.136 5.119.133 0 .28-.016.427-.016 4.253-.457 8.478-1.67 12.673-2.33.72-.111 4.18-.962 6.21-.962.737 0 1.28.11 1.443.41.22.41-1.162 1.559-1.162 1.606 0 .016 0 .032.015.032.132 0 .897-.457 1.472-.82 2.266-1.637-2.488-5.873-2.9-5.873M38.34 67.845c-.28-.173-.633-.236-1.045-.173.089.63.309 1.78.501 2.378 1.148-.157 1.501-1.606.544-2.205m27.377-5.165c.883-.772 1.472-1.04 2.59-1.307l-.913 2.047c-.559-.236-1.103-.488-1.677-.74m-.22-16.757h12.274c1 9.386-4.489 12.52-12.275 15.796zM83.63 40.9c-.28-.614-.942-4.016-1.884-3.275 4.342 8.11 1.443 18.772-6.094 23.906-2.207 1.339-4.96 3.56-7.565 2.079 1.678-6.583 9.774-3.811 11.54-16.347-.221-.11-.31-.173-.5-.205a18.866 20.187 0 0 1-1.355 5.055c.706-1.874.25-7.716.397-8.031-.073-.095-.162-.142-.397-.426.044.71 0 .961 0 1.89H65.497V32.742h12.054v7.228c0 .032.044.378.074.504.177-.268.19-.252.294-.346v-7.764H52.664l-.031 6.551H53v-6.173h12.128v12.803H53.442c-.045.032 0-.204-.03-.157-.016-.048-.089.189-.089.157H53c-.015-.598 0-.96 0-.976l-.368-.016c-.265.96.53 8.993 1.854 10.41-2.65-2.567-3.473-7.103-2.988-10.536 0 0-.235-.189-.514-.425-.825 4.819 1 9.575 4.37 13.024.295.315.619-.031.987-.126-.074-.063-.235-.189-.353-.346.147.141.264.267.353.346l-.192-.504c-2.647-2.031-3.09-7.827-3.148-10.473h12.128l-.015 16.095c-2.576-.126-4.327-2.929-6.815-2.96 3.577 2.126 10.112 7.228 14.248 4.992.03.047.03.031.059.079-.428.535-1.958 1.575-2.65 1.307-1.119-.677-2.855.551-2.06 1.811.102.142.162.283.044.472-4.46-.425-8.478-3.086-12.246-5.37-.044.032-.03.032-.073.063 1.442 1.953 6.608 4.378 6.608 4.378l-.015 2.898s.338.22.56.362v-3.134c1.34.457 4.091 1.323 4.091 1.323v1.953l.53-.33-.03-1.465.721-.205a.95.95 0 0 0 .706-1.04.54.54 0 0 1-.294-.645c.103-.567.794-.583 1.075-.236.559.252 1.104-.426 1.663-.583.765-.473 1.737-.882 2.09-1.78a.757.81 0 0 1 .383-.472c1.56-.882 3.075-1.874 4.355-3.15 5.477-4.63 7.39-12.583 5.565-19.387m-11.494 8.08c-.06-.048-.206 0-.221.047.015.283-.308.205-.397.41.059.125.147.22.28.204.16-.016.16.189.309.205.72-.331 1.574-.252 2.177-.82-.22-.188-.28-.456-.323-.74-.427.032-.825-.03-1.178.174-.044.189.089.283.178.457-.296.126-.545.189-.825.063m-.825-9.324c-.529-.031-.94-.078-.794.567.03.158.088.614.177.725.03.063.03.126-.015.173-.221.126-1.045-.22-.943-.488 0-.237-.235-.3-.308-.126-.03.078-.089.063-.178-.032-.146-.204-.367.079-.279.252.03.063 0 .142-.088.142-.22.095-.205.41.103.425.692.315 1.295.646 2.09.536h-.015c.869-.079.427-.237.383-.85-.148-.647.972-1.072-.133-1.324m1.649-1.228.294.598s.619.284.707.378c.353.252.294.977-.015.882-.53-.205-.84-.945-1.207-1.401-.089-.08-.338-.82-.5-.63-2.164.472.383 1.023-.016 1.826-.072.126-.308.678-.205.756.176.237.589.394.794.678.353.346.044.74-.397.41-.25-.174-.545.094-.294.33.03.047-.148.126-.178.142-.25.362.178.346.398.157.118-.063 0 .315.206.252.398-.079 1-.283 1.118-.898.236-.567-.323-.472-.47-.976-.132-.19-.147-.945.162-.662.28.347.663.567 1.016.237.323-.3.03-1.04-.133-1.37-.324-.646-.677-1.276-.647-2.048.426-.52.942.41 1.25-1.04-1.03.064-2.03.757-1.516 1.906.309.646.236.599-.368.473m-2.222.44c.118-.125.486-.487.53-.566.044-.079.044-.079.309-.095.707-.11 1.06-.393 1.266-1.15.089-.236-.03-.724-.177-.834-.058-.047-.072-.11-.043-.142.132-.015.41-.126.456-.283-.073-.142-.265-.032-.515-.11-.178-.08-.663-.237-.87-.126-.131.173-.956.189-.808.425.03.094.088.315.088.315l.383.031v.284s-.265.047-.353.078c-.236.315.53.347.72.095.148-.158.354-.19.339-.016-.088.22-.456.33-.677.441-.308.047-.397.677-.633.882-.691.126-.942.11-1.633-.44-.25-.3-.442-.08-.25.14-.133.048-.767-.314-.472.3l.044.063c-.308.441.148.3.412.425.56.237 1.163.394 1.884.284m-1.928-2.788c.206.126.354.74.486.82.236.314.722 1.133 1.207.96.133-.063.28-.473.28-.536 0-.015-.089-.094-.177-.157-.441-.41-.72-.787-.736-1.15-.015-.126.265-.283.236-.393 0-.41-.339.063-.486-.016-.073-.11-.324-.457-.486-.284-.088.048.03.284-.044.347-.044.047-.06.047-.177.047-.353 0-.411.22-.103.362m-13.775 6.835a.971.971 0 0 1-.148-.189c-.015.174.073.378.044.551a2.763 2.763 0 0 1-.103.473c.22.205.353.236.589.142-.03-.331-.103-.74-.383-.977m5.343.866c-.044.205.162.3.191.473-.25.157-.515.173-.794.205-.133-.142-.192-.394-.442-.315-.133.031-.059.173-.162.236-.28-.016-.28-.016-.308.252.073.047.161.11.25.157-.206.977 2.442-.047 2.84-.33-.133-.22-.295-.363-.353-.615-.103-.425-.898-.078-1.222-.063m-4.592-1.669c-.412.772-.294 1.465.206 2.126.942.032 1.324-1.26 1.177-2.031.088-.063.192-.126.28-.205-.03-.095-.044-.19-.074-.284-.177 0-.323 0-.47-.015-.338-.441-.545-.441-.957-.048-.28-.11-.28-.11-.456.142a.574.614 0 0 0 .294.315m7.712 1.15c-.28.126-.647.252-.869-.079.486-.189 1.075-.142 1.4-.583.25-.299.22-.897-.236-1.055-1.222-.33-2.488.268-3.725.378-2.28.63-.646-.488-2.472-.488.662 1.874 2.605.677 3.974.535-.103.22-.323.3-.412.504.471-.094 1.104.079 1.472-.283.177-.52 1.398-.583 1.103.126-1.147 1.118-4.723.063-6.328.787-.236.725-.663 1.213-1.354 1.402-.574-.347-.825.047-1.398-.11a1.912 1.912 0 0 1-.178-.174c-.014 0-.029-.015-.043-.031-.015-.016-.045-.016-.059-.031v.03c.015.332-.074.662-.192.962.736.299 1.546-.063 2.282-.268.294-.079.47-.378.794-.378.78.063 1.223-.599 1.884-.788.825-.157 1.649-.283 2.488-.267.972 1.323 1.148.204 2.016.645-.03.126-.059.252-.088.394.088.032.162.047.236.079-.088.315.397.52.456.094.015-.047 0-.11.059-.126.515-.267-.265-1.638-.81-1.275m-8.183-3.339c-.03-.33-.103-.74-.383-.976-.294-.315-.397-.74-.088-1.071-.148-.142-.353-.032-.515-.237-.191-.22-.294.032-.353.268-.53.079-.22.252-.103.551.177.489.824 1.685 1.442 1.465m4.975-.11c-.045.204.147.299.19.472-.249.173-.528.173-.794.205-.148-.142-.205-.394-.456-.315-.133.031-.059.173-.162.236-.265-.016-.265-.016-.309.252.074.047.162.11.25.158-.205.976 2.444-.048 2.842-.331-.134-.22-.296-.362-.34-.614-.117-.441-.897-.079-1.221-.063m-4.608-1.67c-.426.772-.294 1.465.206 2.126.943.032 1.325-1.26 1.178-2.031.088-.079.192-.142.28-.205-.03-.094-.044-.189-.074-.283-.176 0-.323-.016-.47-.016-.34-.441-.545-.457-.957-.047-.28-.11-.28-.11-.456.126a.551.59 0 0 0 .293.33m7.714 1.15c-.28.126-.648.252-.855-.079.471-.189 1.075-.141 1.398-.598.236-.3.222-.882-.25-1.04-1.207-.346-2.487.268-3.708.378-2.297.615-.663-.488-2.488-.488.663 1.874 2.62.677 3.974.536-.088.22-.324.299-.412.504.486-.095 1.119.078 1.472-.284.19-.52 1.398-.583 1.118.11-1.148 1.134-4.738.08-6.343.804-.235.724-.663 1.212-1.355 1.401-.485-.299-.75-.047-1.162-.063.015.126.06.268.088.394.044.142.059.283.059.41.486-.048.972-.237 1.428-.363.293-.079.471-.378.794-.378.78.063 1.222-.598 1.884-.787.825-.158 1.664-.284 2.502-.268.972 1.323 1.134.205 2.002.646-.015.126-.044.252-.074.393.09.032.163.048.222.08-.074.314.411.519.47.094.016-.048-.015-.11.059-.126.516-.268-.28-1.638-.823-1.276m-7.95-3.606c-.029-.347-.116-.74-.382-.977-.294-.3-.397-.724-.087-1.055-.148-.142-.353-.031-.501-.236-.192-.22-.309.031-.353.268-.544.078-.236.251-.103.535.177.504.81 1.685 1.428 1.465m4.93-.126c-.044.22.147.315.191.488-.25.157-.53.157-.794.205-.133-.142-.192-.394-.442-.331-.133.031-.059.189-.162.252-.28-.032-.28-.032-.308.252.073.047.161.094.25.142-.206.96 2.427-.032 2.81-.331-.117-.205-.294-.362-.338-.614-.103-.426-.883-.08-1.207-.063m-4.563-1.654c-.427.772-.294 1.465.206 2.11.928.032 1.31-1.244 1.163-2.016.088-.063.177-.126.28-.189-.03-.11-.044-.188-.074-.283-.177 0-.323-.016-.471-.016-.338-.44-.544-.44-.942-.063-.28-.094-.28-.094-.47.142a.604.646 0 0 0 .308.315m-1.972 2.835c.118 0 .236-.142.353-.016-.015.063-.015.126-.03.189.75.33 1.574-.047 2.31-.236.295-.095.472-.394.795-.394.767.063 1.208-.583 1.87-.772.809-.157 1.648-.283 2.472-.267.957 1.307 1.134.189 1.987.645a3.103 3.32 0 0 1-.073.378c.088.032.162.063.236.079-.089.33.397.52.456.094.015-.047-.015-.11.059-.11.514-.283-.28-1.638-.81-1.275-.28.126-.647.252-.869-.08.486-.188 1.075-.14 1.398-.582.236-.299.222-.897-.25-1.055-1.192-.33-2.457.284-3.68.394-2.28.614-.646-.488-2.457-.488.647 1.858 2.59.661 3.944.535-.102.205-.323.3-.41.488.47-.094 1.102.095 1.455-.283.192-.504 1.383-.567 1.104.126-1.133 1.102-4.694.063-6.284.787-.236.725-.663 1.197-1.355 1.402-.56-.362-.824.047-1.383-.11-.162-.174-.324-.378-.56-.174v.252c-.264-.078-.573.3-.28.473M66.056 51.53c.308.472.397 1.228.927 1.512.25 0 .619.22.767-.063-.148-.583-.855-.898-.767-1.56.045-.141-.015-.299-.147-.44-.265.094-.839-.536-.632.204-.163.063-.266.174-.148.347m1.649-2.52c-.044-.74-.898-1.213-.633-1.953.059-.142.044-.3-.103-.41-.25.064-.25.064-.442-.062-.308-.158-.368.204-.338.425-.06.031-.117.063-.206.094.22.63.883 2.237 1.722 1.906m0 8.803c-.28-.535-.707-1.023-.913-1.574.25-.347.133-.788-.324-.504-.103-.237-.28-.268-.486-.22-.058.157-.103.298.06.409.015 0 0 .047 0 .063-.045.015-.103.031-.148.047-.117.3.177.472.28.693.323.504.794 1.732 1.53 1.087m3.136-4.505c-.177 0-.221.237-.089.347.118.126.236-.016.384.031v.19c.75.046 1.869-.615 2.252-1.213-.148-.237-.31-.473-.457-.71-.397.127-.853.127-1.104.49.148.14.28.283.411.424-.264.158-.573.41-.867.174-.133-.11-.457-.063-.383.141.015.032 0 .079-.015.11a.408.437 0 0 1-.133.016m1.119 2.993c-.397.094-.81.141-1.059.55.103.127.206.269.308.41-.191.489-.691.41-1.162.426.044.157.074.251.103.362-.206.094-.28.267-.236.52.044.015.103.047.178.062.131-.157.352-.33.41-.031.854-.268 1.606-.787 2.003-1.575-.236-.189-.442-.41-.545-.724m3.135-3.355c-1.383-.457-3.547 2.536-4.46 1.654-.22-.488-.912-.441-1.339-.3.515.363.795 1.197 1.59.93.883-.174 1.575-.898 2.34-1.229.03.268-.235.378-.353.615.53-.158 1-.315 1.398-.646-.073-1.45 2.002-.441.015.457.353.015.604.173.84-.126.455-.41.47-.993-.03-1.355m-5.52-2.268c-.133-.078-.309-.094-.471-.078-.25-.678-.722-.41-1.104-.016-.559-.22-.471.283-.178.551-.278.693-.086 1.701.65 2 .764-.315.971-1.26.926-2 .25-.047.441-.315.178-.457m-1.988 6.426c.721 1.732 1.81-.473 1.546-1.402.5-.425.352-.661-.25-.709-.206-.456-.663-.488-.987-.11-.118.142-.28.095-.427.11-.308.142-.133.473.133.552-.148.52-.22 1.055-.015 1.559m.191-9.796c-.25.693.015 1.622.662 2.016.737-.33 1.223-1.307.957-2.126.178-.142.397-.22.324-.473-.117-.283-.544-.078-.662-.393-.28-.394-.648-.079-.883.173-.162.031-.339-.063-.501.016-.162.299.294.488.103.787m6.962 7.402c-1.546-.189-1.31.866-2.06.614.132-.157.514-.252.383-.52-1.12.504-2.312.85-3.43 1.355-.574.614-.384 1.827-1.678 1.937-.044.63-.927 1.055-1.472.772-.22.204-.133.252-.088.44-.191.174-.442.568-.045.568.133-.032.222-.22.354-.158 0 .079-.015.158-.03.252.103 0 .25.031.294-.016.177-.22.426-.031.618-.204.663-.457 1.62-.867 1.56-1.78 1.178-.52 1.855-2.41 3.37-1.748.751.41.958-.819 1.634-.835.192.441.28.41.53.252.427.331.354-.189.515-.425.015-.236-.22-.504-.456-.504m-8.668-4.788c.148.048.088.22.162.315.78.048 1.545-.157 2.326-.252.589 0 .574-.52 1-.582 1.03.047 1.663-.866 2.635-1.008.78-.22 1.84-.504 2.517.031.177.19.411.22.662.173.324-.047.721-.126.897.268a1.97 1.97 0 0 0-.19.19c.03.062.073.157.117.235.162-.015.177.126.25.22.074.143.28.158.324 0 .044-.172.22-.094.28-.251.03-.473-.074-1.055-.545-1.307-.236-.22-1.163.236-1.192-.22.692.157 2.016-.741 1.103-1.324-1.53-.362-3.223.378-4.782.552-.62.141-.31-.85-1.664-.583.87 1.811 2.752.52 4.224.504 0 .173-.28.157-.22.362.426-.126 1.147.095 1.398-.33.133-.52 1.221-.394.897.204-.81.52-2.03.283-2.988.394-1.177.094-2.458.126-3.56.535-.222.677-.531 1.386-1.31 1.544-.546-.536-1.356.11-1.945-.441-.19.047-.22.157-.308.299-.28.11-.383.283-.088.472m8.124 1.45c.897-.016 2.988-1.009 1.472-1.812-.839-.157-1.692.268-2.502.457-3.297 1.307-1.369-.3-3.4-.126.677 1.748 2.428.85 3.724.44.044.19-.192.237-.162.426.427-.079.853-.173 1.265-.252.178-.866 1.738-.866 1.031-.016-1.81.788-3.93.646-5.814 1.182-1.251 3.291-3.444 1.055-3.43 2-.486.047-.486.52.031.472 0 .96 2.428-.142 2.884-.44.103-.237.207-.442.31-.662.736.362 1.251-.709 1.899-.898.632-.126 1.472-.74 2-.173.604.677 1.518-.347 2.047.33-.206.52.058.284.147.615 0 .283.486.283.501-.016-.015-.126.015-.205.133-.252.264-.41-.31-.866-.501-1.213-.441-.425-1.178.394-1.634-.063m-33.382-33.34c-.28.3-.736-.141-.441-.425.264-.3.72.142.441.425m-.84 1.78-.176.094c-.177-.362-.456-1.039-.47-1.637 0-.126.206-.142.206 0 .015.409.161.96.44 1.543m2.356-.599-.28.032c-.662-.551-1.5-.803-2.31-.662a.847.906 0 0 0-.03-.22c.926-.158 1.883.173 2.62.85m-.736-1.007c-.28.299-.736-.142-.456-.426.28-.299.736.142.456.426m-1.56-.158c-.28.3-.736-.142-.441-.425.264-.3.721.142.44.425m2.886 1.008c-.28.3-.736-.142-.441-.425.264-.284.72.141.44.425m-.617-.52c-.28.3-.737-.142-.456-.425.28-.283.735.142.456.425m-5.917 1.339c.411.016.411-.614.015-.614-.397-.016-.412.614-.015.614m1.825.693.191-.079c-.132-.362-.411-1.04-.838-1.465-.09-.094-.25.048-.148.142.28.284.574.788.794 1.402m-2.044 1.212.22-.173c.073-.866.486-1.638 1.148-2.11-.044-.063-.088-.126-.133-.173-.75.55-1.192 1.449-1.236 2.456M71.87 33.986h4.342v10.11h-9.42v-10.11zm5.24 10.11c.015-.189-.206-.346-.398-.267v.031c-.338 1.56-.177-4.82-.206-4.583l.324.126v-.74l-.324.126v-4.693c.044-.236.412-.032.221.126v.031c.427.142.559-.551.088-.551l.294-.504-.073-.063-.515.284c-.015-.441-.736-.331-.603.094h.044c.161-.189.383.142.132.189h-4.327l.133-.3h-.794l.146.3h-4.327c-.265-.031-.045-.394.117-.189h.045c.133-.425-.589-.535-.604-.094l-.515-.284-.074.063.295.504c-.471 0-.339.693.088.551v-.031c.338-1.544.177 4.787.205 4.567l-.293-.126v.74l.294-.126c-.03-.11.133 6.095-.205 4.583v-.031c-.428-.142-.561.55-.09.55l-.294.505.074.063.515-.284c.015.441.736.331.604-.078h-.045c-.073.094-.25.047-.25-.08 0-.062.06-.11.118-.125h4.341l-.146.3h.794l-.133-.3h4.327c.06.016.103.063.103.126.016.126-.161.173-.235.079h-.044c-.133.41.589.52.589.078.015 0 .515.284.53.284l.073-.063-.294-.504a.29.29 0 0 0 .294-.284m-9.64-4.63v-.015c-.015.015 0 .094 0 .094.015-.173.295-.047.148.079l.044.047c.294.032.338-.394.044-.425l.338-.158v-.094l-.338-.158v-.015c.294-.016.25-.441-.044-.41l-.044.048c.147.126-.133.251-.148.078 0 0-.015.095 0 .095v-3.717h.295v-.283h3.208c.177.031.03.267-.088.141l-.044.048c-.045.283.441.299.441.015l.162.347h.118l.162-.347c0 .284.471.268.441-.015l-.044-.048c-.117.126-.265-.11-.088-.141h3.21v.283h.307c-.043-.063.103 4.567-.161 3.543l-.044-.047c-.28-.031-.324.394-.044.41v.015l-.34.158v.094l.34.158c-.28.016-.236.457.044.425l.044-.047c.264-1.055.118 3.685.161 3.559h-.308v.268h-3.21c-.176-.016-.03-.268.09-.142l.043-.047c.03-.268-.427-.3-.44-.032l-.163-.33h-.118l-.162.33c-.015-.268-.47-.236-.44.032l.043.047c.118-.126.265.126.088.142h-3.208v-.268h-.295zm4.46-4.835zm3.62 4zm-4.488 4.82zm.883 0h-.015.015m3.296.283h.604v-9.386h-8.67v9.386zm-5.636-11.56c.22-.85.514-2.299.986-3.023l-.927-.315c.015.929-.471 2.346-.78 3.228.352.048.352.048.72.11m-5.033-1.7c-.016-.583.073-1.59-.178-2.08h1.193c-.192.52-.545 2.977.471 2.851.412.016.81-.267.794-.677-.015-.598.075-1.67-.176-2.173h1.192c-.28.913-.28 2.535 0 3.465H66.85a.879.94 0 0 0 .045-.347c-1.03.725-2.429.362-2.326-1.04m-2.546.946c1.34-.52.178-2.599-1-2.11-1.34.503-.192 2.598 1 2.11m2.047.535v.016c-.53.425-1.207.252-1.781-.047-1.664.929-3.474-1.26-2.135-2.662 1.413-1.685 4.195.22 2.855 2.063.442.347.795.551 1.06.63m-7.815.473c0-.016 1.103 0 1.103 0a85.103 85.103 0 0 0-.75-1.213c.383-.22 1.192-.551 1.56-.536l-.869-.661-2.678 1.606.309 1.024h.015c.22-.425.545-.756.897-.96.075.141.222.409.413.74m-3.989 4.897c-1.604-.094-1.944-2.866 0-2.456v-.662c-2.516-.157-2.473 3.827 0 3.748zm-.706 1.056c-.574-.457-1.31.362-1.9.488-1 .063-.205-1.181.398-1.276v-.016l-.471-.346c-.912.457-1.604 2.425-.133 2.457.31.015 1.105-.536 1.355-.583.692-.142.47.788.058 1.008.206-.016.427-.031.619.016.383-.536.633-1.323.073-1.748m21.446 24.316 1.928-1.119c-.25-.189-1.752-2.63-1.797-2.929l-1.825 1.055.075.74.014.016a4.247 4.247 0 0 1 1.222-1.008l.574.93c-.31.157-.942.55-1.177.582l.338.41 1.06-.615.544.898c-.353.19-.692.3-1 .315zm7.638-6.788.323-.63L78.2 53.42l-.294.582c.102.126 1.898 1.197 1.898 1.197s-2.972.394-3.106.614l2.767 1.906.325-.472-1.664-1.071s2.428-.284 2.517-.268m1.413-2.756.604-2.079c-.309.016-3.106-.803-3.356-.976l-.574 1.968.574.504.015-.016c-.044-.456.015-.96.191-1.527l1.06.315c-.103.3-.294 1.008-.442 1.197l.53.078.338-1.15 1.016.284c-.118.394-.28.677-.5.898zm-5.917 7.496c2.164-.945 1.678-3.102-.75-2.11-1.031-.3.264-1.339.942-1.102l.015-.016-.515-.599c-.767.331-1.987 1.355-1.34 2.237.457.567 1.369-.048 1.958-.032.986.173-.074 1.197-.677 1.15h-.015M50.542 45.404l.044-.756c-1 .189-2.62.189-3.62 0l-.06.756c1.016-.19 2.636-.19 3.636 0m.338 12.3.604.834c.618-.787 1.928-1.732 2.87-2.079l-.604-.835c-.235.378-.735.756-1.132 1.024l-.913-1.26c.383-.283.897-.661 1.325-.756l-.589-.819c-.634.772-1.944 1.717-2.87 2.08l.589.818c.235-.378.735-.74 1.132-1.024l.914 1.26c-.384.3-.899.662-1.326.756m-2.163-5.67c.736-1.354 3.238-.55 2.208.993-.78 1.323-3.224.583-2.208-.992m-.206 1.827c1.708 1.622 4.386-.993 2.62-2.662-1.708-1.654-4.43.976-2.62 2.662m-1.251-4.536.191.772 3.533-.441-.178-.693c-.176-.032-2.369.378-2.369.378s2.09-2.441 2.031-2.725l-3.56.394.072.614c.177-.031 2.105-.3 2.105-.3s-1.751 1.97-1.825 2.001m45.598 5.071c-.103.11-.737 1.906-.942 1.843a.442.473 0 0 0-.457-.19c-.088-.047-.132-.188-.073-.299.118-.126.706-1.952.986-1.826.059.157.28.267.456.22a.274.293 0 0 1 .03.252m-1.722 6.268c.06-.457-.53-.693-.765-.315.059-.173-.162-1.89.162-1.89.132.095.309.11.457.016.088.016.176.11.176.22v1.859a.208.223 0 0 1-.03.11m.927 3.244c-.544 3.166-4.622.032-1.707-1.307.133.3.603.315.736.016.56.157.971.677.971 1.291m.412-10.599c-.883-.551-1.369 1.906-1.707 2.331-.162.362-.015.756.309.866l-.648 1.355c-.352-.048-.662.204-.662.63.133.52-.398 2.819.544 2.85v.63c-2.266.41-1.928 3.969.398 3.906 2.31.063 2.664-3.465.426-3.89v-.614c.354.063.663-.205.663-.615-.118-.52.353-2.74-.471-2.85l.5-1.04c.84.457 1.34-1.937 1.664-2.346.147-.33.03-.724-.265-.835l.383-.787a12.289 12.289 0 0 1-.53-.82zm.53-1.323h.015c-.073-.126-.147-.252-.206-.362a.495.53 0 0 0 .19.362M65.278 2.803c-.118.882-.575 1.575-1.15 1.685v.22h1.12a.383.41 0 0 0-.133.143c-2.016.44-2.223 3.496-.294 4.22-.75-.724-.177-2.11.883-2.079 1.045-.031 1.618 1.355.869 2.08 1.927-.725 1.706-3.78-.295-4.221a.383.41 0 0 0-.132-.142h1.118v-.22c-.574-.11-1.03-.804-1.148-1.686.883.11 1.575.583 1.677 1.15h.222V.819h-.222c-.102.567-.794 1.04-1.677 1.15.118-.882.574-1.575 1.148-1.686v-.22h-3.135v.22c.574.11 1.03.804 1.148 1.686-.883-.11-1.575-.583-1.678-1.15h-.22v3.134h.22c.103-.567.794-1.04 1.678-1.15m.972 5.827c.765-1.433-1.87-1.433-1.104 0a1.216 1.301 0 0 1 1.103 0m-1.044 1.465c.294-.158.691-.158.986 0 .986-1.528-1.972-1.528-.986 0m.486 1.7c.912 0 .912-1.4 0-1.385-.898-.016-.898 1.386 0 1.386m0 1.732c.912.016.912-1.401 0-1.386-.898-.015-.898 1.402 0 1.386m0 1.732c.912.016.912-1.401 0-1.385-.898-.016-.898 1.401 0 1.386m-1.944.015h.854c0-1.638-.162-4.709-1.178-6.93-.22-.519-1.015-.157-.78.347.707 1.544 1.105 3.874 1.105 6.583m3.046 0h.854c0-2.709.397-5.04 1.103-6.583.236-.504-.558-.866-.779-.346-1.016 2.22-1.178 5.291-1.178 6.93m-6.904-5.939c.824 0 .824-1.291 0-1.291-.839 0-.839 1.291 0 1.291m-5.446 3.921c.84.016.84-1.291 0-1.275-.823-.016-.823 1.291 0 1.275m7.035-4.504c.825.016.825-1.291 0-1.275-.838-.016-.838 1.291 0 1.275m-9.022 7.26c.84 0 .84-1.291 0-1.291-.824 0-.824 1.291 0 1.291m.928-1.433c.823.016.823-1.291 0-1.275-.824-.016-.824 1.291 0 1.275m4.989-4.504c.84.016.84-1.291 0-1.275-.824-.016-.824 1.29 0 1.275m-6.682 7.434c.824.015.824-1.292 0-1.276-.839-.016-.839 1.291 0 1.276m3.944-5.45c.84.016.84-1.29 0-1.275-.824-.016-.824 1.291 0 1.276m1.325-1.056c.824 0 .824-1.291 0-1.291-.839 0-.839 1.291 0 1.291m20.4 2.945c0 .82 1.295.82 1.28 0 .015-.834-1.28-.834-1.28 0m-.411-.693c.823.016.823-1.291 0-1.275-.84-.016-.84 1.291 0 1.275m1.338 2.11c0 .835 1.295.835 1.28 0 .016-.834-1.294-.834-1.28 0m.78 1.497c-.015.835 1.296.835 1.28 0 .016-.82-1.295-.82-1.28 0m-3.311-4.803c.824.015.824-1.292 0-1.276-.84-.016-.84 1.291 0 1.276m-2.738-1.985c.824.016.824-1.291 0-1.275-.839-.016-.839 1.29 0 1.275M69.91 8.755c.824.016.824-1.291 0-1.275-.824-.016-.824 1.291 0 1.275m1.59.583c.824 0 .824-1.291 0-1.291s-.824 1.291 0 1.291m2.929 1.67c.839 0 .839-1.292 0-1.292-.825 0-.825 1.291 0 1.291M53.133 17.26l1.162-.378a13.22 14.146 0 0 1 8.36-6.568 8.623 9.227 0 0 0-.28-.866 14.06 15.044 0 0 0-9.242 7.812m23.961-.378 1.163.378a14.06 15.044 0 0 0-9.243-7.812 9.924 9.924 0 0 0-.28.866 13.22 14.146 0 0 1 8.36 6.568M53.972 62.6c.442.85 3.062 3.181 3.783 2.079-1.28-.646-3.459-2.252-2.62-4.284-1.884-1.15-.221-2.992 1.25-1.433 1.562-.96 3.298-.268 4.844.803.544-1.197-2.15-2.031-2.767-2.378-.795-.267-3.283.3-4.122.331a1.06 1.06 0 0 0-.927 1.15c.133.614.103 3.244.559 3.732m2.9-.535c2.03.015 1.766-3.229-.236-2.882.927.504 1.737 1.842.28 2.22-.545.11-1.104-.472-1.501-.771a1.454 1.454 0 0 0 1.457 1.433m.235-1.355c.515-.63-1.324-1.449-1.604-1.81-.206-.127-.486-.095-.633.094-.53.598 1.295 1.449 1.546 1.78.22.173.53.141.691-.064m11.363 9.15c-.677.063-1.045.536-1.398 1.008-.324-.205-.75-.394-1.149-.394a.914.914 0 0 0-.589.19c1.267.503.81 2.409-.41 2.409-1.237 0-1.68-1.906-.428-2.41a.892.892 0 0 0-.589-.189c-.397 0-.824.19-1.133.394-.368-.472-.72-.945-1.413-1.008.383 3.48 1.972 5.229 3.562 5.229 1.589 0 3.179-1.748 3.547-5.229m-.574.756c-.486 2.756-1.81 4-2.973 4-1.177 0-2.503-1.244-2.988-4 .147.126.294.315.456.536l.265.33.353-.22a2.69 2.69 0 0 1 .441-.22 1.793 1.793 0 0 0-.132 1.086 1.654 1.77 0 0 0 1.604 1.417 1.637 1.752 0 0 0 1.59-1.417c.074-.394.03-.772-.133-1.087.133.048.295.126.441.22l.369.221.25-.33c.162-.22.309-.41.456-.536m-6.622-7.512c.161-.772-1.045-1.008-1.193-.236-.161.756 1.045 1.008 1.193.236m4.121 2.047c.162-.771-1.046-1.008-1.192-.236-.163.756 1.045 1.008 1.191.236m-.882 3.717c-.133.614.838.819.956.19.133-.615-.838-.82-.956-.19m.147-19.544c-.456-.047-.942-.126-1.398-.173-.87.756.117 1.18.765 1.134.559.141 1.295-.599.633-.961m-7.212 2.032a205.377 219.754 0 0 1 2.826 3.669c.133.016.397.063.397.063l-3.37-4.473s-.059.457.147.74m4.15 3.638-4.135-5.48s-.074.252-.118.362l3.96 5.26zm-.411 2.19c-.06-.016-.134-.048-.222-.063-.102.299-.28.834-.015 1.039l1.34.567 1.736-1.276.457-6.93-.5.032c-.147.016-1.075 8-1.575 7.544.102-.536 1.25-7.544 1.25-7.544s-.337-.047-.514-.063c-.03.158-.059.362-.059.362l-1.914-2.504-.25.126 2.046 2.678-.132.472c-.192-.11-2.15-2.85-2.356-3.102l-.397-.032 2.65 3.465-.133.457-2.974-3.906h-.383l3.21 4.236-.162.615-3.533-4.804h-.47l3.915 5.166-.148.488-4.313-5.654-.073.441s4.019 5.276 4.269 5.622c-.221.662-.06.71.22 1.245.162.614-.25 1.543-.972 1.323m-4.635-2.489c.486.284 1.016.599 1.516.866-1.207 1.465.943 2.095.825.662.81.346 3.974 1.323 2.707-.567-4.15.142-6.27-4.22-3.974-7.544 1.399.63 6.3-1.748 5.888.678.265.267.339.299.912.299 1.428-3.26-3.458-2.284-5.21-1.906-1.56.457-3.003-1.827-4.386-.583-.545.489-.191 1.575.559 1.607a.565.605 0 0 0 .25-1.166c1.296-.44.678 1.623.206 2.158-1.47-.772-1.721 1.622-.25.992.06.425.074.85-.03 1.26-1.59-.346-1.163 1.937.03 1.024.339.315.5.834.545 1.323-1.604.22-.324 2.267.412.897M39.74 21.324c-.03-.315.206-.914.206-.914-.309.11-.957.378-1.28.504 0 0 .588.284.794.52-.28.094-.53.142-.912-.031l.5.992c.102-.441.338-.693.5-.725.53.82-.794 1.733-1.369 1.024-.176-.3.03-.614.369-.378-.044-.598-.574-.598-.736-.142.015-.63-.148-1.008-.794-1.197-.178.63.03 1.008.661 1.276-.353-.047-.75.3-.265.74.016-.394.34-.44.516-.173.28.724-.575 1.008-1.28.268.161-.063.323-.032.543.015l-.661-.85c.03.3.015.52-.045.646-.147-.158-.19-.3-.265-.63l-.5.456c.485.3 1.03.788 1.707 1.733.883-.866 4.475-2.363 5.858-2.331-.162-1.15-.103-1.874.045-2.441l-.678.031c.178.268.236.41.25.63-.132-.047-.294-.189-.47-.44l.087 1.086c.133-.189.236-.33.384-.394 0 1.024-.81 1.402-1.104.677-.059-.315.205-.504.486-.22.044-.646-.471-.646-.707-.362.28-.63.177-1.04-.383-1.386-.353.583-.206.976.236 1.417-.427-.22-.81.142-.427.63.073-.425.442-.33.515 0 .073.914-1.516 1.166-1.693.205.148-.095.486-.063.854.173l-.308-1.04c-.148.379-.37.52-.634.63m-3.768-.77c.397.015.411-.615 0-.615-.397-.016-.397.614 0 .614m.972-1.228c.396.015.411-.615.014-.615-.411-.015-.411.615-.015.615m-1.295 2.771c.398.016.412-.614.015-.614-.412-.015-.412.614-.015.614m.058-.803c.413.016.413-.63.015-.63-.397 0-.41.63-.015.63m1.797-4.283-.633.047.323.819.441-.504c.031 0 .06.016.09.031l.058 1.087c.117.96 1.575.378.986-.394l-.691-.834c.014-.032.014-.048.03-.08l.676.064-.338-.82-.471.395c-.03-.016-.06-.016-.088-.032l-.059-.787c-.192.078-.604.236-.794.315l.5.614c-.015.031-.03.047-.03.079m1.795 3.26c.265-.252-.133-.646-.383-.394-.265.236.134.646.383.394m-.338-.725c.264-.236-.133-.646-.383-.394-.265.252.132.646.383.394m47.407-8.457c.133-.504-.574-1.165-1.075-.96.075.55.649 1.023 1.075.96m-6.27 27.686c.471-.283.972-.504 1.413-.85-.103-.142-.176-.252-.294-.41-.411.41-1.383.536-1.118 1.26m2.722-1.102c.236.425.486.835.722 1.244.942 0 .147-.787-.074-1.134-.133-.126-.397-.126-.589-.189a.246.263 0 0 0-.059.079m4.696-25.324c-.368-.787-.56-.882-1.325-.803.309.771.78 1.055 1.325.803m-.515.472c.264.914.633 1.103 1.575.977-.309-.756-.795-1.055-1.575-.977m-1.944 10.883c-1.03-.488-1.87.126-2.9-.11.295 1.433 2.003.393 2.9.11m2.945-9.434c-.045.898.705 1.433 1.972 1.355-.324-.914-.986-1.418-1.972-1.355m3.355 3.182c.03-.048.059-.08.089-.126-.752-1.056-1.075-1.276-2.385-1.276.03 1.276 1.355 1.276 2.296 1.402M78.199 36.805c.251-.693 1.576-2.394.87-2.93-.324.19-1.017.11-.958.63v2.268c.031.016.06.032.089.032m-4.048-4.756c.295-.032.56-.048.81-.063.294-1.056-.309-1.166-1.03-1.733-.295.866-1.06 1.292-1.486 2.032.705-.047 1.103-.284 1.515-.835.059.22.132.41.191.599m8.198 7.827c-1.766 2.157-1.78 2.472.898 3.401-.03-.252-.044-.409-.058-.598a5.308 5.68 0 0 1-1.502-.661c.338-.41.647-.804.972-1.213-.088-.268-.192-.551-.309-.93m1.103 6.316c-.5-.047-.957-.079-1.5-.126.03.268.043.472.058.677.295.079.544.142.824.205.073 1.559-.78 1.59-1.944.93-.337 1.983 2.842 1.779 2.562-1.686m6.55-26.962c.603 0 1.458.378 1.944.032.014-1.89-2.298-1.638-3.608-1.685.398.708.898 1.417 1.664 1.653m5.033 2.347c.545 1.307 1.413.992 1.987 1.842-.486-.157-.897-.299-1.31-.44-.029 1.385 1.708 1.543 2.68 2.078-.162-2.252-1.252-3.102-3.356-3.48m.353 7.15c-.044 0-.073 0-.103.015-.295 1.26.589 2.378 1.148 3.45.956-1.702.913-3.623-.618-4.977-.471.913.191 1.764.412 2.63a.19.19 0 0 0-.088.031c-.25-.378-.5-.771-.75-1.15m.352-8.267c0 .031-.015.078-.015.11a28.459 28.459 0 0 0-1.221-.063c.456 1.433 2.12.74 3.164 1.386-.604-1.15-1.03-2.268-2.428-2.489.147-.693-.045-1.338-.471-1.59.015.598-.236 1.04-.78 1.26-.266 1.197.972 1.134 1.751 1.386m-52.338 10.96c-1.266.08-1.09-1.511-1.458-2.409-.235.252-.426.473-.632.709.264.882.53 1.78.81 2.724.205-.157.383-.283.573-.425.883.63 1.693.205 1.987-.772.265.063.501.174.692-.015-.412-.85-.81-1.685-1.222-2.52-.25.047-.486-.315-.794-.032.28.788 1.324 2.379.044 2.74m52.588-6.992c-.456.882.855 1.244.87 2.08-.34-.284-.634-.52-.972-.788-.412 1.638 1.5 2.157 2.09 3.433.78-2.362.353-3.811-1.988-4.725M53.252 61.5c.545-.504-.191-.803-.47-1.181-4.784-4.457-6.565-10.253-6.153-16.678-.118-.063-.265-.126-.5-.252-.795 6.819 1.824 13.701 7.123 18.11M37.327 31.955c.295.709.72 1.512 1.442 1.811-.368-1.386.574-2.598 1.001-3.858.015 2.898-1.633 4.472 2.325 5.528-1.044-1.701-.352-3.764-1.015-5.512-.647-.363-1.355-.457-1.796-.993-.118-.252-.323-.346-.559-.393-.75-.158-1.428-.41-1.81-1.04-.545.173-.87.158-1.37-.047-.043.614.472 1.228 1.164.992-.544.82-.236 1.544-.044 2.378.397-.834 1.015-1.338 1.692-1.764-.515.898-1.442 1.78-1.03 2.898m7.785-5.748c.193.96-.088 1.764-.705 2.52.942 1.685 2.531 2.96 3.238 4.771 1.575-2.929-.103-3.92-2.267-5.527 1.383.504 2.782.976 3.547 2.299.177-2.52-.942-3.78-3.386-4.173 0-.032.016-.063.016-.095 1.03-.047 2.031-.047 2.988.567-.25-.772-.883-1.921-1.811-1.827.34-.693.324-1.15 0-1.575-.162.489-.47.788-.971.804.118.881-.177 1.606-.648 2.236m-8.316.646c.03-.331.044-.646.073-.993-.383-.078-.72-.126-1.103-.204.442-.331 1-.426 1.442-.252-.383 1.622.294 2.74 2.016 2.834.53-.787 1.001-.897 1.516-.346-2.28-.236-.589 2.158.574 1.354.31-.44 1.28-.834 1.001-1.464-1.81-1.323-1.678.63-2.016-2.63-.074 0-.163-.016-.22-.016-.178.614-.78 1.087-1.28.504-.178-.19-.325-.362-.605-.425 1.237-.977 2.694.44 2.605-1.874 1.383 1.732 1.502-.19 2.855-.22-.058 1.37-.338 1.259-1.516 1.18.384.3 1.855 1.764 1.001 1.89-.352-.913-.956-1.795-1.972-1.984-.824.819-.427 1.732-.294 2.677.736-.236 1.354-.709 2.12-.646.25.74-.957 1.166-.266 1.906 1.178.189 2.444.205 2.076-1.465-.383-.22-.766-.378-1.163.048.03-.646.648-.772 1.148-.646 1.075-1.15.721-2.677-.441-3.59.308-.458.632-.773 1.191-.883-.19.394-.588.536-.676.882.25.33.5.614.735.914.619-.268.78-1.26.339-2.252-.765.204-2.12.834-2.12.834-.662-.252-.367.079-.28.394-2.118.394-4.194.945-5.871 2.347-.295.22-.443.094-.545-.331-.192-.315-.295.22-.309.346 0 0-1.28.315-1.825.788.383.645.942 1.67 1.81 1.323M87.103 47.34c-.589.094-.722.346-.619.913-.647 1.433-.661 3.166-1.795 4.362 2.429-.693 1.884-1.606 2.473-3.449-.118 2.505.015 2.473.912 4.174-1.87 1.323-4.916.22-5.93 2.756.279.33.646 0 1.029.094-.25.284-.338.63-.736.898.088-.252.132-.41.191-.551-.691-.236-1.265 1.354-1.795 1.874 4.99-1.008-.604-2.473 9.228-3.607 1.722-.818-1.648-2.11 1.766-4.267.295-1.166.486-2.394 1.119-3.45.148-.346-.088-.85-.411-1.086-1.487 1.055-2.194-.646-5.432 1.339M48.218 58.475c.456.079.972.173 1.427-.032-.707-1.18-1.383-2.362-2.105-3.575-1.236 1.528-3.4.599-4.754-.346-1.103-.819 1.28-2.079.516-4.788 1.06 1.701-.87 3.197 2.105 4.142-.855-1.275-.737-2.929-1.06-4.394-.044-.252-.163-.504.03-.756.103-.362.132-.834-.354-.881-3.326-1.906-2.648-.993-5.901-1.434-.78 1.418.897 2.662.632 4.032-.235.677.78.646.78 1.307.221 1.024.103 2.457-1.06 2.85-.573.363-.117 1.103.398 1.276-1.03 1.859-.25 2.158 1.34 3.087 0-.724.015-1.354.309-1.953 2.177 1.45-1.06 1.685 3.252 3.434-.441-.725-.426-1.512-.486-2.237.398.095.795.19 1.207.3.472 1.984 1.546 2.173 3.46 1.984-.677-.677-.884-1.56-1.369-2.252.574.189 1.148-.205 1.634.236m44.802-6.489a.334.357 0 0 0 .059.095l.014-.031zm.662-.299c.103.047.19.126.235.236a.257.275 0 0 0 .206-.11c.03-.11 1.178-1.606 1.045-1.7a.433.463 0 0 1-.28-.268c-.102-.11-.264-.158-.367 0-.044.189-1.325 1.622-1 1.81.058 0 .116.016.161.032m13.776-10.96c-.794.235-1.119.897-1.427 1.653-2.002-3.134-5.83-5.292-6.403-9.134.441-3.056 4.505-2.363 3.68.834 2.104-1.134 1.09-3.244-.898-3.606 2.164.173 3.34 1.984 4.813-1.04-1.28.457-3.224.126-3.886.032 2.679-.362 4.15-.33 4.062-3.67-.912 2-3.444 2.032-5.283 2.678.117-.882-.163-1.434-.883-1.717.735 4.882-8.508 3.291 1.647 13.796-1.25-.677-2.693-.441-3.9-1.213.942 2.536 2.532 2.095 4.608 2.977-2.238-.016-2.93 2.157-1.267 3.212-.44-1.685 1.87-2.834 3.017-1.527 2.636 3.386-2.177 8.095-6.46-.394.03.457-.295.882-.75.74l-.487 1.339c.986.378-.515 2.268-.619 2.803-.176.362-.558.473-.838.284l-.47.976c.588.551-1.002 2.079-1.193 2.567-.177.268-.515.362-.75.22l-.163.363a.185.198 0 0 0 .06.063c1.088 1.291 1.574 2.268 1.294 3.638.869-.756 1.266-2.85.56-3.985.794.835 1.943 1.418 2.399 2.473.456 1.937.102 3.843-1.193 5.354-.559.567-.411.85-.486 1.544-.367 1.086-1.663 1.165-2.149 2.094-.353.804-.912 1.465-1.162 2.3 1.472-.22 1.221-2.284 2.62-2.693-.574.85-1.12 1.638-1.501 2.645 1.162-.299 3.355-.614 2.987-2.267-.28-.756.456-1.244.428-1.969.927-.33.706-.709 1.147-1.433.206.44.22.803.192 1.276-.118-.237-.192-.378-.266-.552-.646.882-.116 1.749-.205 2.693 3.223-2.882-1.045-2.85 2.281-9.244.765-1.26-2.178-1.118-2.399-3.984-.206-1.245.883-2.268 1.119-3.45 1.28 2.284 5.769 2.205 5.151 5.135.912-.693.87-1.937.515-2.867 4.622-1.669.972-5.937 2.458-8.945m-10.92 7.34c.03-.174.985-1.78.735-1.907a.426.426 0 0 1-.456-.236c-.236-.094-.84 1.638-.942 1.748.308-.189.691.126.589.489a.367.393 0 0 0 .073-.095m.956-4.583c0 .063.031.142.074.19.178-.158.441-.095.574.078.192-.047.133-.662.178-.82-.237-.235-.472-.472-.722-.692zM72.46 73.373c3.106-.63.353-4.33-3.489-2.819-.338 1.465-.633 2.866-1.883 3.953 2.472.126 4.857-.031 7.168-1.008 1.133-.693 1.133-3.181 2.37-4.52-1.414-.283-.751 4.536-4.166 4.394m-11.672-2.772c-3.827-1.511-6.608 2.19-3.488 2.82-3.415.141-2.752-4.678-4.165-4.379 1.236 1.323 1.236 3.812 2.369 4.504 2.311.977 4.695 1.134 7.168 1.024-1.251-1.102-1.546-2.488-1.884-3.969m20.341-38.048c-.103-.126-.133-.3-.044-.426-.162-.031-.442 1.48-.486 1.575.103.11.206.205.295.315.132.032.383.126.427-.094l.352-1.339c-.162.142-.426.158-.544-.031m16.309 6.567c-.295-.016-.531.236-.443.551-.015-.016-.043-.016-.073-.031l-1.354-.93a.211.226 0 0 1-.074-.283c.265 0 .53-.142.5-.441.103.126 1.561.898 1.444 1.134m-4.975-4.693c-.074.11-.236.315-.236.315-1.502-1.717-6.55-3.67-8.743-3.355 0 0 .03-.252.044-.393l-.015.015.825-.535-.707-.583c0-.079-.456-2.96-.456-2.96l1.25-.032s-.44.52-.456.93a.598.64 0 0 1 .163.22c.25-.11.53-.63.53-.63l.117 1.7s-.353-.488-.603-.582a.355.38 0 0 1-.089.173c.353 1.118 2.002 1.197 2.002.22-.059-.504-.604-.409-.574.11-.897-.708.309-1.858.824-.708-.073-.661-.015-1.04.5-1.37.339.44.295.835-.073 1.48 1.103-1.023 1.531.725.486.977.514-.914-.957-.63-.412.33.486.756 1.678.646 2.09-.173a.424.454 0 0 1-.059-.157c-.412-.08-1.03.283-1.03.283l.574-1.575s.236.677.589.882a.449.48 0 0 1 .235-.126c.06-.41-.353-1.055-.353-1.055l1.928.74s-.765.19-1.016.536a.466.499 0 0 1 .089.236c.397.079 1.045-.236 1.045-.236l-.692 1.512s-.191-.662-.56-.882a.681.729 0 0 1-.147.078c-.28.882.516 1.733 1.399 1.512 1.06-.315.22-1.527-.074-.504-.574-.897.972-1.874 1.045-.393.192-.71.442-1.04 1-1.119.134.583-.087.898-.603 1.323 1.193-.488 1.252 1.15.089 1.071.397-.378.059-.803-.338-.472-.692.724.602 1.748 1.603 1.228a.3.32 0 0 1 .044-.173c-.25-.173-.838-.19-.838-.19l1.236-.913s-.147.552-.03.835a.508.508 0 0 1 .265.032c.265-.268.28-.977.28-.977l.912 1.134s-2.296 1.071-2.708 1.386l-.648-.063.324.898zm-6.785-8.347c.382.142.75.346 1.132-.047-.368 0-.486-.268-.588-.504-.192-1.276 1.884-.835 2.663-.74 1.944 1.18 5.27.425 4.108-2.394.897.567.588 2.11-.09 2.709-1.794.976-3.502.236-5.298 2.141-.279-.866-1.309-.819-1.692.142-.338.032-.427.016-.75.047-.06-.52.352-.882.514-1.354m4.813-4.882c-.574.394-1.089.976-1.678.173-.146.032-.25.063-.397.079.87-1.339.81-1.103 2.075-.252m1.958-3.087c.427.473.618.992.618 1.575-.412-.142-.603-.598-.618-1.575M74.505 25.75l2.178-.771.795 1.606-1.501.96zm-1.398-.378c-.28 1.654-4.003.945-3.65-.708.28-1.654 4.018-.945 3.65.708m-7.418.725-2.325-1.654 2.325-1.638 2.34 1.638zm-5.343.204c-2.355.473-2.855-2.126-.486-2.567 2.37-.472 2.87 2.126.486 2.567m-4.931 1.245-1.5-.961.793-1.606 2.179.771zm28.7-5.229c.193-.016.354-.031.56-.063-.367-.252-.014-.614.295-.362.707.551-.721 1.464-.854.425m14.44 18.662-.192-.031-.545-1.45c.25-.314.383-.834 0-1.086-.53-.204-2.002-1.89-2.428-.803-.192.063-1.355.142-1.443.347a11.82 12.647 0 0 1-1.383-2.867c.235-1.212 3.443-2.724 3.443-2.724s-.912-1.307-1.28-2.048c-.162.363-.308.205-.663.363 1.782-3.166 2.164-7.323-.191-10.316-.25-.52-.133-1.212-.367-1.716-.413-.536-.692-1.607-1.413-1.717-.015.945-.103 1.858.352 2.74.486.599-.662 1.118-1.015.63.677-.078.794-.204.559-.598-2.944-.662-4.592 1.417-7.403 1.732-.25 0-.471.095-.604.315-1.736 2.331 2.15.74 2.487 2.284-.648.535-.735.189-1.34.031-.882.032-1.72.3-.632 1.04-.662 1.055-.633 1.417-1.987 1.511.59.835.456 2.032.618 2.977-.971.173-1.634.646-1.648 1.67-.427.094-.898-.127-1.207.346-.603-.504-1.31-.599-2.03-.614a15.886 16.998 0 0 0-2.15-1.355c.191-.693.368-1.323.53-1.921.265-.173 1.236-.803 1.486-.96a47.965 51.323 0 0 0-.78-1.576c1.737-5.968 2.296-6.315 3.18-6.44l.043-.158-3.208-1.04-.059.22c.81.583 1.075 1.56.707 2.71-.854-.378-1.34-1.182-1.25-1.906-.017-.016-.207-.063-.207-.063l-1.075 3.56s.147.046.162.062c.427-.614 1.163-.96 2.016-.819-1 3.166-5.46 2.174-4.665-.504.574-1.118 1.648-.394 1.134.756 2.501-.882 1.03-4.488-1.12-2.33.707-1.45 1.12-2.6.221-4-1.147.74-1.442 2.078-1.221 3.873-1.413-3.228-3.886.095-1.884 1.78-.368-2.394 2.605-.803.604 1.134-1.914 1.354-4.269-.205-4.343-2.599 1.104.095 1.958.756 2.061 1.575h.206l.133-4.063s-.221-.016-.25-.016c-.163.82-1.06 1.528-2.193 1.544.072-1.26.794-2.237 1.721-2.394v-.236H63.35v.236c.927.157 1.647 1.134 1.721 2.394-1.133-.016-2.03-.725-2.192-1.544-.031 0-.25.016-.25.016l.132 4.063h.205c.103-.819.958-1.48 2.061-1.575-.073 2.394-2.428 3.953-4.342 2.599-2-1.937.972-3.528.604-1.134 2.002-1.685-.471-5.008-1.884-1.78.221-1.795-.073-3.134-1.222-3.874-.897 1.402-.486 2.551.22 4-2.148-2.157-3.62 1.465-1.118 2.331-.514-1.15.56-1.858 1.134-.756.794 2.677-3.68 3.67-4.666.504.854-.142 1.59.205 2.016.819a1.06 1.06 0 0 1 .163-.063l-1.075-3.56s-.191.048-.205.064c.087.724-.399 1.527-1.253 1.905-.367-1.15-.103-2.126.708-2.708l-.06-.22-3.208 1.039.044.157c.87.126 1.442.472 3.18 6.441-.148.284-.664 1.307-.795 1.575.25.158 1.236.788 1.501.96.147.536.309 1.119.471 1.749.015-.016.015-.016.03-.016-.015.016-.015.032-.03.016-4.313 2.016-3.34 3.386-6.653 2.992-.308.693-.589 1.37-1.251 1.827-.132-1.055-.603-1.858-1.222-2.614-.308-.347-.72.047-1.177.078-.913 1.969-1.53.19-3.12 1.213.059.93.206 1.827.707 2.677-1.178-.078-2.164-.41-2.944-.96-3.533 3.953-7.213 7.748-10.23 12.079-1.619 2.142-5.931.898-4.798-2.047.53-2.142 3.621-1.685 3.43.44 1.53-1.7.544-3.385-1.796-3.007 2.149-.93 3.43.819 5.372-1.591-1.486.031-2.738-.441-4.21-.095 1.87-1.118 4.43.536 6.02-2.535-1.383.142-2.635.724-4.076.945 8.61-8.221.323-8.63 1.383-12.19-.677.583-1.06 1.15-.75 1.922-1.929-.803-4.799-.567-5.579-2.914-.192 3.339 1.28 3.103 3.797 3.78-1.162-.142-2.31-.142-3.4-.551.22 1.496 1.37 1.827 2.694 1.669-1.296.74-1 2.599.324 3.244-.854-4.835 6.387-3.181 3.09 1.26-1.545 2.284-3.753 3.985-5.622 5.985-.353-.615-.721-1.229-1.53-1.134 1.412 1.638-.192 3.417-.56 5.118-.56 2.095 1.295 3.874 3.268 4.11-.78.945-.854 1.764-.236 2.536.589-3.07 5.048-2.378 5.475-5.701.074-.394.25-.693.692-.882-2.001 2.268 2.826 7.071-1.707 7.638-.648.016-.81.693-.457 1.181-1.87-.094-2.384.63-2.679 2.394.825-.22 1.605-.425 2.37-.614-.81 2.142-2.663-.126-2.355 3.67.75-.363 1.457-.74 2.164-1.166.663 2.126-3.4 1.213-.353 4.614.191-.63 1.016-1.937 1.428-2.236-.383 1.071-.295 2.315.912 2.803.059-.283.103-.535.163-.787.057-.016.043-.016.102-.016.162.709.191 1.701.883 2.11.221.095.353.221.427.457.117.394.486.504.839.551.456.095.574-.409.897-.63.103.568.766.662 1.09 1.134.25-2.771-3.43-1.763-2.59-3.59.323 1.118 1.368.866 2.104 1.323.28.472.972.85 1.325.204.338.268.648.489.956.725-.72-3.292-2.428-1.26-3.503-2.992.75.031 1.546 1.15 2.356.393.427.441.765.961 1.103 1.496.133-1.055-.264-1.858-1.089-2.44-.942-.568-2.208.44-3.002-.694-1.09-1.354-1.06-3.244-.501-4.803.53-1.197 1.972-1.654 2.65-2.787-.192 1.007-.089 2.756 1.044 3.07-.28-1.858 1.046-3.543 1.31-5.338.354-.457.369-.803.06-1.292-.575-.929-.722-2.047-1.355-2.96-.957-1.355-2.15-1.386-.177-2.82-1.206 1.859-.22 1.182.81 2.93.191-.583 1.075-1.355-.03-1.355-1.738-.85 2.266-3.07 3.164-3.134.898-.063 2.149.032 2.826-.85-.427-.803-.839-.913-.117-1.748-.486-.284-.913-.63-1.001-1.26-.456.157-.87.3-1.355.472.442-.504 1.722-1.496 1.87-.393.03.63.647.74 1.133.897-.353.504-.942 1.024-.412 1.607.383.393.603 1.134 1.178 1.228.147-.583.308-1.134.456-1.7 1.265 1.322-1.266 2.062 2.207 3.26-.132-.725-.235-1.418-.147-2.158 1.678 1.401-.72 2.283 3.135 2.74-.427-.504-.53-1.07-.691-1.654.647.11 1.177.725 1.588 1.197.399.599.692.93 1.59.347.045.094.059.252.133.299.412.315.25.693.235 1.102h.118c.53-.535.574-1.165.397-1.842-.368-1.276-1.928-.252-2.472-1.56.736.505 1.471.788 2.28.363.458.44.634.74.855 1.354.368-1.386-.044-2.787-1.501-2.378-.457.173-.648.126-1.09-.268.663.237 1.119-.11 1.546-.425.088.126.147.268.206.268.412.031.677.268.928.567.146-1.165-1.031-2.126-2.209-1.827-.294 1.449-1.5.63-2.473.441-1.486-.882-2.266-2.551-3.59-3.638.132-1.622-1.222-2.913-2.841-2.819 1.458-.646 3.194.614 3.312 2.142.044.614.426 1.008.824 1.48 4.945-9.937 20.885-12.536 30.025-6.22.78.708 1.634 1.29 2.443 2.047.309-.945.118-2.079 1.531-1.496l.266-.19c-.28-.802.308-1.7 1.162-1.763v.63c-.368.047-.662.41-.604.787.28-.047.545.315.384.567a.77.77 0 0 0 .853-.126c.235 0 .47.032.691.048-.308.771-1.428 1.023-2.06.472.117.173-.426 1.858-.441 2.047a.557.596 0 0 1-.545.41c.103.157.191.299.28.44.397-.22.956-.204.897-.77.088-.332-.117-1.812.339-1.67.177.55-.162 1.212.25 1.764 1.324-.331.736-1.528 2.34-1.827.633-.063 1.972-.378 2.326.267-1.399-.378-3.209 0-3.518 1.607-1.457.346-2.679 1.37-4.225 1.37-1.236.079-1.56 1.56-1.618 2.567-.206 1.165-.266 2.378-.78 3.449-.265.41-.045.882.087 1.276.471.236.81 1.874.883 2.456 0 1.071 1.826 1.434 2.576 2.095.207-1.339-2.325-.96-1.972-2.835.442 1.244 1.428 1.496 2.502 2.11-.338-1.26-.426-3.338-2.178-3.07-.677-.945.309-.993 0-2.11.5.157.736.33.869.645-.163-.047-.295-.095-.515-.158.058.788.75.977 1.28 1.512-.089-1.291-.205-2.11-1.413-2.74-.692-.63.103-2.063.059-2.93-.03-.267 1.619-1.07 1.87-1.007 1.206.173 2.472-.032 3.649.283 1.163.363.162-2.173 2.06-.834-1.368-.41-.544 1.086-1.53 1.165-.692 0-1.28-.063-2.001-.094 2.486 5.543 8.006 3.921 9.522 8.85 1.265-1.118.397-1.102.044-2.267 2.87 1.905-2.664 4.126-.589 7.464-.133-.378 1.178-1.937 1.325-2.267a.592.633 0 0 1 .898-.11l.412-.867c-.78-.425.618-2.22.721-2.74.148-.315.471-.457.736-.33l.383-1.072c-.737-.189-.192-1.968-.25-2.457-1.016-.929-1.855-2.094-2.65-3.165l.486-.079a.555.594 0 0 0 .235.646c.354.142 1.708 1.433 2.135 1.134l.206.567c-.339.094-.398.583-.412.898.191.157.383.299.56.456.03-.11.014-.645.116-.724.148.22.442.22.619.047.161.079-.044 1.228-.015 1.37.191.22.383.441.559.677-.073-.535.574-2.535-.324-2.63"/>
</svg>
