<?xml version="1.0" encoding="utf-8"?>
<!-- Generator: Adobe Illustrator 21.0.2, SVG Export Plug-In . SVG Version: 6.00 Build 0)  -->
<svg version="1.1" id="Logo" xmlns="http://www.w3.org/2000/svg" xmlns:xlink="http://www.w3.org/1999/xlink" x="0px" y="0px"
	 viewBox="0 0 480 130" style="enable-background:new 0 0 480 130;" xml:space="preserve">
<style type="text/css">
	.st0{fill:#549CB5;}
	.st1{fill-rule:evenodd;clip-rule:evenodd;}
</style>
<g id="NEWCASTLE">
	<polygon id="E_2_" class="st0" points="457.2,128.2 474.9,128.2 474.9,123.5 462.7,123.5 462.7,118.9 473.6,118.9 473.6,114.7 
		462.7,114.7 462.7,110.5 474.6,110.5 474.6,106.2 457.2,106.2 	"/>
	<polygon id="L" class="st0" points="438.1,128.2 453.9,128.2 453.9,123.5 443.5,123.5 443.5,106.2 438.1,106.2 	"/>
	<polygon id="T_1_" class="st0" points="423,128.2 428.5,128.2 428.5,110.8 435.1,110.8 435.1,106.2 416.4,106.2 416.4,110.8 
		423,110.8 	"/>
	<path id="S_1_" class="st0" d="M396.1,121c0.1,4.8,3.7,7.6,9.5,7.6c2.9,0,9.5-0.7,9.5-7.3c0-4-3.2-5.4-6.3-6.3
		c-0.7-0.2-1.4-0.4-2-0.5c-2.6-0.6-4.6-1.1-4.6-2.6c0-1.5,1.5-2.1,3-2.1c0.8,0,2.3,0.1,3.1,1c0.4,0.4,0.6,1,0.6,1.6h5.5
		c-0.1-5-4.8-6.8-8.8-6.8c-4.4,0-8.9,2-8.9,6.6c0,3.9,3.1,5.3,6.4,6.3c0.6,0.2,1.2,0.3,1.7,0.4c2.6,0.7,4.8,1.2,4.8,3
		c0,1.8-1.9,2.4-3.7,2.4c-2.8,0-4.2-1.1-4.4-3.5H396.1z"/>
	<path id="A" class="st0" d="M389.5,128.2h5.7l-8.2-22h-5.7l-8.2,22h5.6l1.4-4h8l0,0.1L389.5,128.2z M386.8,120.2h-5.5l2.6-8.1h0.3
		l0,0.1L386.8,120.2z"/>
	<path id="C" class="st0" d="M362.4,105.7c-6.3,0-10.9,4.8-10.9,11.5c0,6.6,4.6,11.4,10.9,11.4c5.7,0,9.6-3.4,10-8.8H367
		c-0.3,2.6-2,4.1-4.7,4.1c-4,0-5.4-3.5-5.4-6.8c0-3.3,1.4-6.8,5.4-6.8c2.6,0,4.3,1.3,4.6,3.4h5.5
		C372.2,108.7,367.2,105.7,362.4,105.7"/>
	<polygon id="W" class="st0" points="339.2,128.2 344.7,128.2 350.8,106.2 345.3,106.2 342.2,122.5 341.8,122.5 338.5,106.2 
		333.4,106.2 330.1,122.5 329.7,122.5 329.7,122.4 326.6,106.2 321.1,106.2 327.1,128.2 332.7,128.2 335.8,112.8 336.1,112.8 
		336.1,112.9 	"/>
	<polygon id="E_1_" class="st0" points="301,128.2 318.7,128.2 318.7,123.5 306.5,123.5 306.5,118.9 317.4,118.9 317.4,114.7 
		306.5,114.7 306.5,110.5 318.4,110.5 318.4,106.2 301,106.2 	"/>
	<polygon id="N_1_" class="st0" points="290.3,128.2 296,128.2 296,106.2 290.9,106.2 290.9,119.9 290.5,119.9 290.5,119.8 
		282.8,106.2 277.1,106.2 277.1,128.2 282.2,128.2 282.2,114.3 282.6,114.3 	"/>
</g>
<g id="UNIVERSITY">
	<polygon id="Y" points="255.1,128.2 260.5,128.2 260.5,120 260.5,119.9 268.5,106.2 262.3,106.2 257.8,115.5 253.2,106.2 
		247.1,106.2 255.1,120 	"/>
	<polygon id="T" points="233.1,128.2 238.6,128.2 238.6,110.8 245.2,110.8 245.2,106.2 226.5,106.2 226.5,110.8 233.1,110.8 	"/>
	<rect id="I_1_" x="217.7" y="106.2" width="5.5" height="22"/>
	<path id="S" d="M194.9,121c0.1,4.8,3.7,7.6,9.5,7.6c2.9,0,9.5-0.7,9.5-7.3c0-4-3.2-5.4-6.3-6.3c-0.7-0.2-1.4-0.4-2-0.5
		c-2.5-0.6-4.6-1.1-4.6-2.6c0-1.5,1.5-2.1,3-2.1c0.8,0,2.3,0.1,3.1,1c0.4,0.4,0.6,1,0.6,1.6h5.5c-0.1-5-4.8-6.8-8.8-6.8
		c-4.4,0-8.9,2-8.9,6.6c0,3.9,3.1,5.3,6.4,6.3c0.6,0.2,1.2,0.3,1.7,0.4c2.6,0.7,4.8,1.2,4.8,3c0,1.8-1.9,2.4-3.7,2.4
		c-2.8,0-4.2-1.1-4.4-3.5H194.9z"/>
	<path id="R" d="M186.9,128.2h5.3c-0.6-1-0.7-3.3-0.8-4.5l0-0.4c-0.3-3-1.3-4.8-3.1-5.2l-0.1,0v-0.3l0.1,0c2.1-0.8,3.4-2.9,3.4-5.4
		c0-4.5-3.9-6.1-7.6-6.1h-11.2v22h5.5V120h4.6c2.9,0,3.3,2.4,3.4,4.7c0,0.1,0,0.2,0,0.4C186.4,125.9,186.5,127.5,186.9,128.2
		 M183.4,115.9h-5v-5.4h4.8c1.9,0,3.1,1,3.1,2.6C186.2,114.9,185.2,115.9,183.4,115.9"/>
	<polygon id="E" points="151.2,128.2 169,128.2 169,123.5 156.7,123.5 156.7,118.9 167.6,118.9 167.6,114.7 156.7,114.7 
		156.7,110.5 168.6,110.5 168.6,106.2 151.2,106.2 	"/>
	<polygon id="V" points="134.1,128.2 140.6,128.2 147.7,106.2 142,106.2 137.6,122.8 137.3,122.8 137.2,122.7 132.9,106.2 
		127.2,106.2 	"/>
	<rect id="I" x="118" y="106.2" width="5.5" height="22"/>
	<polygon id="N" points="107.4,128.2 113.1,128.2 113.1,106.2 108,106.2 108,119.9 107.6,119.9 107.6,119.8 99.9,106.2 94.2,106.2 
		94.2,128.2 99.3,128.2 99.3,114.3 99.6,114.3 	"/>
	<path id="U" d="M70.9,106.2v12.9c0,6.5,3,9.5,9.5,9.5c6.5,0,9.5-3,9.5-9.5v-12.9h-5.5v13.3c0,3.1-1.3,4.5-4.1,4.5
		c-2.8,0-4.1-1.4-4.1-4.5v-13.3H70.9z"/>
</g>
<g id="northumbria">
	<path id="a" class="st1" d="M454.1,85.5c0-2.5,1.9-3.5,4.3-4c2.3-0.6,4.9-0.8,6.4-1.7c0.2,6.5-1.4,9.3-6.3,9.3
		C456.1,89.1,454.1,88.1,454.1,85.5 M454.7,72.7c0.5-2.7,2.3-4,5.2-4c2.1,0,5,0.9,5,3.3c0,2-1,2.6-2.7,2.9
		c-7.2,1.5-18.4,0.7-18.4,11c0,6.5,4.8,9.6,10.8,9.6c3.8,0,7.7-1.1,10.4-3.9c0.1,1,0.2,2,0.6,3H476c-1.2-2.5-1.2-5.4-1.2-8.1V72.7
		c0-9-7.3-10.6-14.8-10.6c-3.6,0-7.3,0.6-10.1,2.2c-2.8,1.6-4.8,4.3-4.9,8.5H454.7z"/>
	<path id="i" d="M428.7,63.7h10.4v31.6h-10.4V63.7z M428.7,59.6h10.4v-7.2h-10.4V59.6z"/>
	<path id="r_1_" d="M403.6,95.4h10.4V79.7c0-4,2.6-7.3,7.7-8.1c1.9-0.3,3.7,0.2,4.1,0.2l0-8.4c-0.8-0.2-1.6-0.2-2.4-0.2
		c-4.5,0-8,2.1-9.5,6.2h-0.1v-5.6h-10.1V95.4z"/>
	<path id="b" class="st1" d="M366.7,95.4h9.9v-3.7h0.1c2,3,5.1,4.6,8.7,4.6c9.9,0,14.1-8.5,14.1-17.4c0-8.2-4.4-16-13.4-16
		c-3.9,0-6.9,1.5-9,4.4h-0.1V51.8h-10.4V95.4z M383.1,70.7c4.6,0,6.2,4.4,6.2,8.5c0,4.3-1.6,9.2-6.2,9.2c-4.7,0-6.3-3.6-6.3-9.2
		C376.7,72.7,380.2,70.7,383.1,70.7"/>
	<path id="m" d="M311.2,95.4h10.4V79.9c0-6.5,1.6-8.6,5.3-8.6c2.8,0,3.9,2.3,3.9,6v18h10.4V79.9c0-5.1,0.4-8.5,4.9-8.5
		c2.7,0,4.3,2,4.3,5.4v18.6h10.4V76.5c0-6-1.1-13.7-11.1-13.7c-4.3,0-7.4,1.8-9.9,5.1c-1.7-3.8-5.2-5.1-9.2-5.1
		c-3.8,0-7.2,2.1-9.1,5.2h-0.1v-4.3h-10.1V95.4z"/>
	<path id="u" d="M305,63.7h-10.4v17c0,5.6-3.4,7.1-5.7,7.1c-3.3,0-5.1-1.5-5.1-5.7V63.7h-10.4v19c0,8.3,2.6,13.5,11.7,13.5
		c3.7,0,7.7-2,9.6-5.2h0.1v4.3H305V63.7z"/>
	<path id="h" d="M236.7,95.4H247V78.1c0-3.5,1.7-6.8,5.6-6.8c5.7,0,5.2,4.4,5.2,8.7v15.3h10.4V75.1c0-4.6-0.9-12.3-11.4-12.3
		c-3.8,0-8,2-9.6,5.2H247V51.8h-10.4V95.4z"/>
	<path id="t" d="M232,63.7h-6.4v-9.6h-10.4v9.6H210v8.1h5.2v12.7c0,8.6,2.3,11.2,11.1,11.2c1.9,0,3.8-0.2,5.7-0.3v-7.6
		c-0.9,0-1.8,0.1-2.7,0.1c-2.3,0-3.7-0.5-3.7-3v-13h6.4V63.7z"/>
	<path id="r" d="M184.9,95.4h10.4V79.7c0-4,2.6-7.3,7.7-8.1c1.9-0.3,3.7,0.2,4.1,0.2l0-8.4c-0.8-0.2-1.6-0.2-2.4-0.2
		c-4.4,0-8,2.1-9.5,6.2H195v-5.6h-10.1V95.4z"/>
	<path id="o" class="st1" d="M158.9,79.6c0-4,1.5-8.8,6.3-8.8c4.8,0,6.3,4.8,6.3,8.8c0,4-1.5,8.8-6.3,8.8
		C160.4,88.4,158.9,83.6,158.9,79.6 M148.6,79.6c0,9.5,6.8,16.7,16.6,16.7c9.8,0,16.7-7.2,16.7-16.7c0-9.5-6.9-16.8-16.7-16.8
		C155.4,62.8,148.6,70.1,148.6,79.6"/>
	<path id="n" d="M113.7,95.4h10.4V78.1c0-3.5,1.7-6.8,5.6-6.8c5.7,0,5.2,4.4,5.2,8.7v15.3h10.4V75.1c0-4.6-0.9-12.3-11.4-12.3
		c-3.8,0-8,2-9.9,5.2h-0.1v-4.3h-10.1V95.4z"/>
</g>
<path id="Decoration" class="st0" d="M4.3,127.2c-0.1,0.1-0.2,0.2-0.3,0.4h37.2c81.7-98.5,162.3-142.2,224.7-76.3
	c0.4,0.4,1.2,0.8,0.5-0.8C258.2,32.5,186.1-86.3,4.3,127.2"/>
</svg>
