<svg xmlns="http://www.w3.org/2000/svg" class="icon icon--logo R-icon--logo--said" viewBox="0 0 104 104"><path fill="#fff" d="M0 0h104v104H0z"/><path class="border" d="M101.48 2.52v99h-99v-99h99M104 0H0v104h104V0z" fill="currentColor"/><path d="M65.32 40.79 94.9 57.85v-7.94L65.32 32.85v7.94zm4.92-8.57L94.9 46.44v-7.95L70.24 24.27v7.95zm4.95-8.56L94.9 35.03v-7.95L75.19 15.71v7.95zm4.93-16.52v7.96l14.8 8.53v-7.95l-14.8-8.54zM10.21 54.32h.67a9.37 9.37 0 0 0 .38 1 7 7 0 0 0 .87 1.68 2.8 2.8 0 0 0 1.92.66 2.27 2.27 0 0 0 2.52-2.41c0-1.44-1.07-2.07-2.27-2.69l-.56-.26c-2-1-3.2-1.88-3.2-3.92 0-2.32 2.09-3.68 4.87-3.68a10.28 10.28 0 0 1 1.95.18l.9.11.13 3.01h-.58a10.12 10.12 0 0 0-.35-1 5.43 5.43 0 0 0-.71-1.35 2.61 2.61 0 0 0-1.69-.54 2 2 0 0 0-2.23 2.07c0 1.33.66 2.07 2.44 2.93l.87.45a6.76 6.76 0 0 1 2.08 1.47 3.23 3.23 0 0 1 .78 2.25c0 2.43-2.06 3.86-5 3.86a11.84 11.84 0 0 1-2.32-.27l-1.07-.27zm16.73 3.88a2 2 0 0 1-1.86-1.06l-.68.32a4 4 0 0 1-2 .62 2.34 2.34 0 0 1-1.63-.54 1.67 1.67 0 0 1-.6-1.36 1.77 1.77 0 0 1 1.08-1.66 23.13 23.13 0 0 1 3.26-1.08l.45-.13v-1.86c0-1.11-.62-1.59-1.64-1.59a2.26 2.26 0 0 0-1 .21l-.1 1.09-1.55.49a.42.42 0 0 1-.32-.41c0-.27.14-.48.55-.83a7 7 0 0 1 3.55-1.6 3.38 3.38 0 0 1 2.26.6 2 2 0 0 1 .58 1.59l-.14 5.24 1.6 1zm-3.29-4c-.87.27-1.24.58-1.24 1.43a1.31 1.31 0 0 0 1.33 1.48 1.43 1.43 0 0 0 1.15-.49v-2.83zm6.53-9.66a1.16 1.16 0 0 1 .8.32 1.1 1.1 0 0 1 .34.83 1 1 0 0 1-.34.81 1.16 1.16 0 0 1-.8.32 1.14 1.14 0 0 1 0-2.28zm-.68 5.38v-.06l3.63-1.14h.13v8.14l1.07 1v.06h-4.69v-.06l1.14-1v-6.1zm4.25-5.38a1.14 1.14 0 1 1 0 2.28 1.14 1.14 0 0 1 0-2.28zm10.34 1.03v11.1l1.38.37v.06l-3.6 1.1h-.12l-.08-1.2-.68.32a4.84 4.84 0 0 1-2.17.65c-2 0-3.72-1.53-3.72-4.25 0-3.11 2.2-4.89 5.06-4.89a6.31 6.31 0 0 1 1.53.2v-3.65l-1.3-.72v-.06l3.66-1h.12zm-2.44 6.69c0-1.83-.49-2.92-1.71-2.92a1.81 1.81 0 0 0-1.6 1 5.34 5.34 0 0 0-.61 2.75c0 2.38 1.07 3.88 2.6 3.88a1.83 1.83 0 0 0 1.32-.53zM9 75.48v-.06l1.91-1.12V63.65L9 62.53v-.06h6.82c3 0 4.37 1 4.37 3a2.92 2.92 0 0 1-2.62 2.86c1.95.32 3.39 1.43 3.39 3.4 0 2.55-2.31 3.9-5.87 3.9-.86 0-2.21-.08-2.86-.08zm7.72-11.87A3.31 3.31 0 0 0 14.6 63a4.89 4.89 0 0 0-1.13.11v5.24a6.67 6.67 0 0 0 .83 0c1.65 0 3.19-.54 3.19-2.79a2.37 2.37 0 0 0-.8-1.95zm.57 6a4 4 0 0 0-2.51-.72 7 7 0 0 0-1.28.09v3.45a4.63 4.63 0 0 0 .26 2c.24.46.78.58 1.45.58a2.87 2.87 0 0 0 3-3.18 2.68 2.68 0 0 0-.95-2.2zm14.83 5.07v.06l-3.42 1.05-.3-.08-.06-1.2-.39.23a5 5 0 0 1-2.74 1c-1.58 0-2.36-.85-2.36-2.52v-5.29l-1.17-1.07 3.67-.07v6.26a1.43 1.43 0 0 0 1.53 1.57A1.92 1.92 0 0 0 28.3 74v-6l-1.67-1v-.06l4.17-.07v7.6zm1.54-1.9c.09.26.19.51.29.74a5.83 5.83 0 0 0 .59 1.2 1.82 1.82 0 0 0 1.32.47c.92 0 1.52-.47 1.52-1.34s-.35-1.06-1.44-1.67l-1-.54a2.75 2.75 0 0 1-1.7-2.58c0-1.63 1.55-2.56 3.54-2.56a5.47 5.47 0 0 1 2.33.44l.08 2.2h-.59a7.12 7.12 0 0 0-.26-.74 4.27 4.27 0 0 0-.63-1.09 1.68 1.68 0 0 0-1.06-.31c-.87 0-1.34.47-1.34 1.19a1.42 1.42 0 0 0 .3.9 4 4 0 0 0 1.17.86l.72.41a5.32 5.32 0 0 1 1.55 1.16 2.18 2.18 0 0 1 .45 1.4 2.48 2.48 0 0 1-1 2 4.14 4.14 0 0 1-2.67.77 5.43 5.43 0 0 1-1.71-.23 7.2 7.2 0 0 1-1-.39L33 72.8zm6.7-5.23v-.06L44 66.35h.13v8.15l1.07 1v.06h-4.7v-.06l1.14-1v-6.16zm1.42-5.66a1.43 1.43 0 0 1 2.07 2 1.49 1.49 0 0 1-2.07 0 1.36 1.36 0 0 1-.39-1 1.44 1.44 0 0 1 .39-1zM46 67.55v-.06l3.55-1.14h.12v1.37l.58-.35a5.28 5.28 0 0 1 2.48-.93c1.82 0 2.54 1 2.54 2.7v5.29l1.17 1v.06h-4.71v-.06l1.08-1V69.2a1.45 1.45 0 0 0-1.61-1.54 1.84 1.84 0 0 0-1 .22 3.57 3.57 0 0 0-.54.38v6.17l1.07 1v.06h-4.61v-.06l1.14-1v-6.09zM64.69 70l-5.27-.18c-.1 1.72.54 4.33 3 4.33a2.78 2.78 0 0 0 1.47-.34 4.75 4.75 0 0 0 .93-.72l.24.47a4.73 4.73 0 0 1-3.88 2.14A4.08 4.08 0 0 1 57 71.33a4.62 4.62 0 0 1 4.59-4.87 3.3 3.3 0 0 1 2.5.87 3.18 3.18 0 0 1 .91 2.29zm-2-.6c.05-1.6-.54-2.45-1.52-2.45s-1.61 1.1-1.71 2.45zm4.16 3.38c.09.26.19.51.29.74a5.83 5.83 0 0 0 .58 1.2 1.86 1.86 0 0 0 1.32.47c.92 0 1.53-.47 1.53-1.34s-.36-1.06-1.44-1.67l-1-.54a2.76 2.76 0 0 1-1.71-2.58c0-1.63 1.56-2.56 3.54-2.56a5.49 5.49 0 0 1 2.34.44l.08 2.2h-.61a7.12 7.12 0 0 0-.27-.74 4.25 4.25 0 0 0-.62-1.09 1.7 1.7 0 0 0-1.04-.31c-.88 0-1.34.47-1.34 1.19a1.47 1.47 0 0 0 .29.9 4.11 4.11 0 0 0 1.17.86l.73.41a5.47 5.47 0 0 1 1.55 1.16 2.23 2.23 0 0 1 .44 1.4 2.47 2.47 0 0 1-.94 2 4.17 4.17 0 0 1-2.68.77 5.41 5.41 0 0 1-1.7-.23 8 8 0 0 1-1-.39l-.16-2.29zm7.82 0a7.12 7.12 0 0 0 .28.74 5.83 5.83 0 0 0 .59 1.2 1.84 1.84 0 0 0 1.32.47c.92 0 1.53-.47 1.53-1.34S78 72.79 77 72.18l-1-.54a2.74 2.74 0 0 1-1.71-2.58c0-1.63 1.56-2.56 3.54-2.56a5.43 5.43 0 0 1 2.33.44l.08 2.2h-.6a7.12 7.12 0 0 0-.27-.74 4.27 4.27 0 0 0-.63-1.09 1.66 1.66 0 0 0-1.09-.31c-.87 0-1.34.47-1.34 1.19a1.42 1.42 0 0 0 .3.9 4.11 4.11 0 0 0 1.17.86l.73.41a5.25 5.25 0 0 1 1.54 1.16 2.18 2.18 0 0 1 .45 1.4 2.5 2.5 0 0 1-.94 2 4.19 4.19 0 0 1-2.68.77 5.48 5.48 0 0 1-1.71-.23 8.37 8.37 0 0 1-1-.39L74 72.8zM10.21 89.57h.67a8.85 8.85 0 0 0 .38 1.06 6.67 6.67 0 0 0 .87 1.58 2.75 2.75 0 0 0 1.92.67 2.27 2.27 0 0 0 2.52-2.41c0-1.44-1.07-2.08-2.27-2.69l-.56-.26c-2-1-3.2-1.88-3.2-3.92 0-2.32 2.09-3.68 4.87-3.68a10.28 10.28 0 0 1 1.95.18l.9.11.13 3.08h-.58c-.11-.34-.22-.67-.35-1a5.43 5.43 0 0 0-.71-1.29 2.56 2.56 0 0 0-1.69-.54 2 2 0 0 0-2.23 2.07c0 1.33.66 2.06 2.44 2.93l.87.44a7 7 0 0 1 2.08 1.48 3.23 3.23 0 0 1 .78 2.16c0 2.43-2.06 3.86-5 3.86a11.84 11.84 0 0 1-2.32-.27l-1.07-.27zm17.48-3.38a1.52 1.52 0 0 1-.69.44l-2.17-2c-1.4.16-2.08 1.7-2.08 3.42s.89 3.76 2.87 3.78a2.67 2.67 0 0 0 2.13-.92l.25.45a4.54 4.54 0 0 1-3.7 2 4 4 0 0 1-4-4.34 4.72 4.72 0 0 1 4.94-4.93c1.79 0 2.81.79 2.81 1.34a1.06 1.06 0 0 1-.36.76zm.6-6.19v-.1l3.66-1h.12v6.52l.53-.35a5.25 5.25 0 0 1 2.4-1c1.82 0 2.54 1 2.54 2.7v5.29l1.18 1v.06h-4.65v-.06l1.08-1v-5.23a1.45 1.45 0 0 0-1.61-1.54 1.84 1.84 0 0 0-1 .22 3.12 3.12 0 0 0-.55.38v6.17l1.08 1v.06h-4.61v-.06l1.13-1V80.67zm15.88 4.09a4.4 4.4 0 0 1 4.72 4.56 4.58 4.58 0 0 1-4.81 4.71 4.38 4.38 0 0 1-4.73-4.62 4.6 4.6 0 0 1 4.82-4.65zm-2.11 4.12c0 2.43.76 4.7 2.37 4.7 1.24 0 1.8-1.59 1.8-3.68 0-2.38-.82-4.7-2.44-4.7-1.2 0-1.73 1.62-1.73 3.68zm12.78-4.12a4.4 4.4 0 0 1 4.72 4.56 4.58 4.58 0 0 1-4.82 4.71A4.37 4.37 0 0 1 50 88.74a4.6 4.6 0 0 1 4.84-4.65zm-2.11 4.12c0 2.43.75 4.7 2.37 4.7 1.24 0 1.8-1.59 1.8-3.68 0-2.38-.82-4.7-2.44-4.7-1.21 0-1.73 1.62-1.73 3.68zM65 93.05v.06h-4.82v-.06l1.16-1V80.67L60 80v-.1l3.66-1h.12v13.16z" fill="#002147"/></svg>